<svg width="50" height="50" viewBox="0 0 50 50" fill="none" xmlns="http://www.w3.org/2000/svg">
<g clip-path="url(#clip0_280_5344)">
<path d="M4.93095 45.0086L0.146467 17.8448C0.100269 17.5826 0.0714706 17.3177 0.0602606 17.0517C-0.0108437 13.972 2.2005 11.3118 5.24129 10.8189L14.4741 9.18964L14.2241 45.0086H4.93095Z" fill="#4D5E80"/>
<path d="M40.4641 43.819C40.304 44.4837 39.7663 44.991 39.0935 45.1121L11.921 49.9052C10.2083 50.2042 8.44985 49.7512 7.09482 48.6619C5.73979 47.5726 4.91947 45.9525 4.84345 44.2156C4.77555 41.2711 6.80274 38.6911 9.67966 38.0604L17.2917 40.1984H17.2831L10.4297 41.4139C9.6653 41.5482 9.00144 42.0182 8.62072 42.6945C8.24001 43.3707 8.18254 44.1821 8.46414 44.9052C8.95175 46.07 10.1901 46.7324 11.4297 46.4915L32.1969 42.8277L40.4641 43.819Z" fill="#3D4566"/>
<path d="M17.2846 40.1982L10.4311 41.4138C9.66678 41.5481 9.00292 42.0181 8.6222 42.6943C8.24148 43.3706 8.18402 44.182 8.46562 44.9051C8.95322 46.0699 10.1916 46.7323 11.4311 46.4914L32.1984 42.8276L17.2846 40.1982Z" fill="#E1DFD7"/>
<path d="M11.0566 28.5957L15.8472 1.42845C16.0186 0.494612 16.9084 -0.128287 17.8446 0.0301693L44.8075 4.78448C47.8505 5.27773 50.0635 7.93966 49.9928 11.0215C49.9811 11.2863 49.9523 11.5501 49.9066 11.8112L45.1161 38.9784L11.0566 28.5957Z" fill="#EE9999"/>
<path d="M39.1713 9.02924C39.1207 9.02922 39.0702 9.02489 39.0204 9.01631L19.4937 5.57321C19.053 5.46453 18.7721 5.03279 18.8512 4.58588C18.9304 4.13897 19.3425 3.82997 19.7937 3.87924L39.3195 7.31804C39.7599 7.39518 40.0682 7.79618 40.0296 8.24159C39.991 8.68701 39.6183 9.029 39.1713 9.02924Z" fill="#3F5C6C"/>
<path d="M35.0254 12.6724C34.9748 12.6724 34.9243 12.6678 34.8746 12.6586L22.1401 10.4163C21.6819 10.3234 21.3813 9.88225 21.4624 9.42185C21.5436 8.96145 21.9769 8.64962 22.4392 8.71892L35.1746 10.9603C35.6175 11.0352 35.9287 11.4376 35.8897 11.8851C35.8508 12.3327 35.4746 12.6752 35.0254 12.6724Z" fill="#3F5C6C"/>
<path d="M36.8256 16.5227L18.9937 13.3727C18.5247 13.2899 18.0774 13.6029 17.9945 14.0719L16.4945 22.5632C16.4117 23.0322 16.7247 23.4795 17.1937 23.5624L35.0256 26.7124C35.4945 26.7952 35.9419 26.4822 36.0247 26.0132L37.5247 17.5219C37.6075 17.0529 37.2945 16.6056 36.8256 16.5227Z" fill="#ECF0F1"/>
<path d="M49.9927 11.0173C49.9824 11.2833 49.9536 11.5483 49.9064 11.8104L45.1133 38.9742L38.4668 36.9483L42.3202 15.1035L43.234 9.94829L44.1651 4.67242L44.8116 4.78449C47.851 5.27979 50.0611 7.93851 49.9927 11.0173Z" fill="#E37A7A"/>
<path d="M40.0164 31.9482L13.0509 27.1982C12.9512 27.181 12.8503 27.1723 12.7491 27.1723C11.8556 27.1746 11.1119 27.8591 11.0357 28.7493C10.9594 29.6396 11.5759 30.4406 12.456 30.5947L39.6198 35.3792C40.3835 35.5175 41.0454 35.9901 41.4241 36.6675C41.8029 37.3449 41.8588 38.1562 41.5767 38.8792C41.0918 40.0414 39.8552 40.7011 38.6198 40.4568L11.5595 35.6895C11.4598 35.6724 11.3589 35.6637 11.2578 35.6637C10.3626 35.6615 9.61465 36.3447 9.53604 37.2364C9.45743 38.1281 10.0743 38.9316 10.956 39.0861L38.1285 43.8706C39.8399 44.1706 41.5977 43.7191 42.9527 42.6315C44.3077 41.5438 45.1287 39.9254 45.206 38.1895C45.2737 35.1063 43.0602 32.4442 40.0164 31.9482Z" fill="#E37A7A"/>
<path d="M41.5778 38.8793C41.0928 40.0415 39.8563 40.7013 38.6209 40.4569L11.5605 35.6897L12.4571 30.5948L39.6209 35.3793C40.3846 35.5176 41.0464 35.9902 41.4252 36.6676C41.8039 37.345 41.8599 38.1563 41.5778 38.8793Z" fill="#E1DFD7"/>
</g>
<defs>
<clipPath id="clip0_280_5344">
<rect width="50" height="50" fill="white"/>
</clipPath>
</defs>
</svg>
