<svg width="20" height="20" viewBox="0 0 20 20" fill="none" xmlns="http://www.w3.org/2000/svg">
<g clip-path="url(#clip0_280_5264)">
<path d="M2.96595 10.4586H2.00733C1.84238 10.4589 1.70074 10.5759 1.6694 10.7379L0.159054 18.4896C0.119865 18.6921 0.173363 18.9015 0.304877 19.0604C0.43639 19.2193 0.632113 19.311 0.838364 19.3103H8.27629C8.27629 19.6896 9.04871 20 10.0004 20C10.9522 20 11.7246 19.6896 11.7246 19.3103H19.1625C19.3688 19.311 19.5645 19.2193 19.696 19.0604C19.8275 18.9015 19.881 18.6921 19.8418 18.4896L18.3315 10.7379C18.3001 10.5759 18.1585 10.4589 17.9935 10.4586H2.96595Z" fill="#E64C3C"/>
<path d="M9.99944 11.4621V17.931C9.49496 17.7119 8.96918 17.5455 8.43048 17.4345C6.38279 16.9893 4.25347 17.0976 2.26151 17.7483C2.14702 17.7832 2.02261 17.7568 1.93221 17.6783C1.84182 17.5998 1.79818 17.4803 1.81669 17.3621L2.96496 10.4586L3.06151 9.87589C3.08623 9.728 3.20299 9.61262 3.35117 9.58968C3.58565 9.5552 3.82703 9.52072 4.06841 9.49313C4.48978 10.3122 5.33349 10.8272 6.25462 10.8276C6.31669 10.8276 6.37531 10.8242 6.43393 10.8207C6.66354 10.8028 6.88971 10.7541 7.10634 10.6759C7.10706 10.6832 7.10941 10.6903 7.11324 10.6966C7.37125 11.4192 8.05625 11.9012 8.82358 11.9C9.25567 11.9015 9.67356 11.7458 9.99944 11.4621Z" fill="#F5EFCA"/>
<path d="M17.7379 17.7482C15.746 17.0976 13.6167 16.9893 11.569 17.4345C11.0303 17.5455 10.5045 17.7119 10 17.931V11.462C10.0725 11.4027 10.1395 11.3369 10.2 11.2655C10.5445 11.4025 10.912 11.4727 11.2828 11.4724H11.3034C11.3214 11.7189 11.4153 11.9539 11.5724 12.1448C11.9071 12.4757 12.3255 12.7093 12.7828 12.8207C13.1146 12.9266 13.4106 13.1223 13.6379 13.3862C13.8406 13.6373 14.1841 13.7256 14.4828 13.6034C14.7457 13.4898 14.9163 13.2312 14.9172 12.9448C14.9176 12.8699 14.906 12.7953 14.8828 12.7241C14.8483 12.6172 14.8103 12.5103 14.7655 12.4069C14.679 12.1932 14.5655 11.9916 14.4276 11.8069C15.1115 11.437 15.5917 10.778 15.7345 10.0137C15.7448 9.99996 15.7586 9.98616 15.769 9.97237C15.887 9.83355 15.9835 9.67779 16.0552 9.5103C16.2552 9.53444 16.4517 9.55858 16.6483 9.58961C16.7965 9.61255 16.9132 9.72793 16.9379 9.87582L17.0345 10.4586L18.1828 17.362C18.2013 17.4803 18.1576 17.5998 18.0672 17.6783C17.9768 17.7567 17.8524 17.7832 17.7379 17.7482Z" fill="#F9EAB0"/>
<path d="M11.7236 19.3104C11.7236 19.6897 10.9512 20 9.99952 20C9.0478 20 8.27539 19.6897 8.27539 19.3104L8.43056 17.4345C8.96926 17.5455 9.49504 17.7119 9.99952 17.9311C10.504 17.7119 11.0298 17.5455 11.5685 17.4345L11.7236 19.3104Z" fill="#C03A2B"/>
<path d="M16.2087 8.78987C16.2084 9.038 16.1568 9.28337 16.057 9.51056C15.9853 9.67805 15.8888 9.83382 15.7708 9.97263C15.7605 9.98642 15.7467 10.0002 15.7363 10.014C15.5936 10.7783 15.1133 11.4372 14.4294 11.8071C14.5673 11.9918 14.6809 12.1935 14.7674 12.4071C14.8122 12.5106 14.8501 12.6175 14.8846 12.7244C14.9078 12.7956 14.9194 12.8701 14.9191 12.945C14.9181 13.2315 14.7475 13.4901 14.4846 13.6037C14.1859 13.7258 13.8425 13.6375 13.6398 13.3864C13.4124 13.1226 13.1164 12.9268 12.7846 12.8209C12.3273 12.7095 11.909 12.4759 11.5743 12.145C11.4172 11.9541 11.3232 11.7192 11.3053 11.4726H11.2846C10.9138 11.473 10.5464 11.4028 10.2018 11.2657C10.1413 11.3372 10.0744 11.403 10.0018 11.4623C9.67595 11.746 9.25807 11.9017 8.82598 11.9002C8.05864 11.9014 7.37365 11.4194 7.11563 10.6968C7.11181 10.6905 7.10945 10.6834 7.10874 10.6761C6.8921 10.7543 6.66594 10.803 6.43632 10.8209C6.3777 10.8244 6.31908 10.8278 6.25701 10.8278C5.32504 10.8272 4.47319 10.3007 4.05582 9.4674C3.63844 8.6341 3.72698 7.63662 4.2846 6.88987C4.24312 6.77727 4.2221 6.65815 4.22253 6.53815C4.22045 6.02855 4.57839 5.58834 5.0777 5.48642C5.07956 5.48455 5.08198 5.48334 5.0846 5.48298C5.08115 5.4416 5.0777 5.40022 5.0777 5.35539C5.07724 5.16414 5.11719 4.97495 5.19494 4.80022C5.41496 4.29137 5.91643 3.96203 6.47081 3.96229C6.67988 3.96129 6.88637 4.00849 7.07425 4.10022C7.44136 3.48215 8.10711 3.1034 8.82598 3.10367C9.3192 3.10188 9.79569 3.2824 10.1639 3.61056C10.3753 3.2696 10.7598 3.07569 11.1596 3.1084C11.5595 3.14111 11.9073 3.39494 12.0605 3.76574C12.1589 3.75474 12.2579 3.74898 12.357 3.74849C13.6931 3.75071 14.8049 4.77564 14.9156 6.10711H14.926C15.2101 6.10711 15.4825 6.22021 15.6831 6.42143C15.8836 6.62264 15.9959 6.89542 15.9949 7.17953C15.9943 7.36531 15.9468 7.54794 15.857 7.71056C16.0858 8.02388 16.209 8.40189 16.2087 8.78987Z" fill="#FB7B76"/>
<path d="M10.0011 1.03448C9.81063 1.03448 9.65625 0.880098 9.65625 0.689655V0.344828C9.65625 0.154385 9.81063 0 10.0011 0C10.1915 0 10.3459 0.154385 10.3459 0.344828V0.689655C10.3459 0.880098 10.1915 1.03448 10.0011 1.03448Z" fill="#F0C419"/>
<path d="M15.5577 3.40814C15.4182 3.40811 15.2925 3.3241 15.2391 3.19526C15.1858 3.06643 15.2153 2.91814 15.3139 2.81952L15.6587 2.4747C15.7453 2.38506 15.8735 2.34911 15.994 2.38066C16.1146 2.41222 16.2088 2.50637 16.2403 2.62693C16.2719 2.74749 16.2359 2.8757 16.1463 2.96228L15.8014 3.30711C15.7368 3.37178 15.6491 3.40812 15.5577 3.40814Z" fill="#F0C419"/>
<path d="M4.4439 3.40814C4.35246 3.40812 4.26476 3.37178 4.20011 3.30711L3.85528 2.96228C3.76564 2.8757 3.72969 2.74749 3.76125 2.62693C3.7928 2.50637 3.88696 2.41222 4.00752 2.38066C4.12808 2.34911 4.25629 2.38506 4.34287 2.4747L4.6877 2.81952C4.78629 2.91814 4.81577 3.06643 4.76241 3.19526C4.70905 3.3241 4.58335 3.40811 4.4439 3.40814Z" fill="#F0C419"/>
<path d="M7.09721 1.95703C6.95775 1.95707 6.832 1.8731 6.77859 1.74427L6.38273 0.788413C6.3324 0.674041 6.34788 0.541391 6.42319 0.441683C6.49851 0.341975 6.62187 0.290814 6.74564 0.307954C6.86942 0.325093 6.97424 0.407853 7.01962 0.524275L7.41583 1.48014C7.45098 1.56468 7.45108 1.65973 7.41608 1.74434C7.38109 1.82895 7.31388 1.89616 7.22928 1.93117C7.18734 1.94826 7.14249 1.95705 7.09721 1.95703Z" fill="#F0C419"/>
<path d="M12.9035 1.95703C12.8582 1.95694 12.8134 1.94804 12.7715 1.93083C12.6869 1.89582 12.6198 1.82866 12.5848 1.74413C12.5498 1.6596 12.5499 1.56464 12.5849 1.48014L12.9811 0.524275C13.0265 0.407853 13.1313 0.325093 13.2551 0.307954C13.3789 0.290814 13.5022 0.341975 13.5775 0.441683C13.6529 0.541391 13.6683 0.674041 13.618 0.788413L13.2222 1.74427C13.1687 1.8731 13.043 1.95707 12.9035 1.95703Z" fill="#F0C419"/>
<path d="M17.01 6.06265C16.8451 6.06315 16.7029 5.94684 16.6707 5.78511C16.6385 5.62339 16.7254 5.46151 16.8779 5.39886L17.8338 5.003C17.9476 4.95588 18.0779 4.97306 18.1757 5.04808C18.2734 5.1231 18.3237 5.24456 18.3076 5.3667C18.2914 5.48885 18.2114 5.59312 18.0976 5.64024L17.142 6.0361C17.1002 6.05354 17.0553 6.06257 17.01 6.06265Z" fill="#F0C419"/>
<path d="M2.99194 6.06266C2.9466 6.06258 2.90172 6.05356 2.85987 6.03611L1.90436 5.64025C1.79053 5.59312 1.71048 5.48885 1.69437 5.36671C1.67826 5.24456 1.72854 5.12311 1.82627 5.04809C1.92399 4.97306 2.05432 4.95588 2.16815 5.003L3.12401 5.39886C3.27654 5.46152 3.36337 5.62339 3.33119 5.78512C3.29901 5.94685 3.15684 6.06316 2.99194 6.06266Z" fill="#F0C419"/>
<path d="M15.7689 9.97242C15.7586 9.98621 15.7448 10 15.7344 10.0138C15.6737 10.3459 15.5471 10.6625 15.362 10.9448C15.1815 10.9961 14.9946 11.0216 14.8069 11.0207C14.4651 11.0197 14.1284 10.9382 13.8241 10.7828C13.68 10.7057 13.5448 10.6132 13.4207 10.5069C13.2831 10.5602 13.1371 10.5882 12.9896 10.5897C12.5341 10.592 12.1169 10.3353 11.9138 9.92759C11.8583 9.81733 11.8659 9.68587 11.9337 9.58273C12.0015 9.47959 12.1191 9.42044 12.2423 9.42756C12.3655 9.43468 12.4756 9.50698 12.531 9.61724C12.5991 9.74799 12.7198 9.84346 12.8627 9.87968C13.0056 9.9159 13.1571 9.88942 13.2793 9.8069C13.4172 9.71277 13.4998 9.55664 13.5 9.38966C13.5005 9.30972 13.4828 9.23071 13.4482 9.15862C13.3788 8.99189 13.4498 8.79983 13.611 8.71833C13.7722 8.63684 13.9689 8.69352 14.062 8.84828C14.1459 9.01643 14.1896 9.20176 14.1896 9.38966C14.1868 9.6306 14.1111 9.86504 13.9724 10.0621C14.0276 10.1 14.0827 10.1379 14.1379 10.169C14.3448 10.2755 14.5741 10.331 14.8069 10.331C15.1606 10.333 15.5028 10.2054 15.7689 9.97242Z" fill="#FF5364"/>
<path d="M11.5512 8.61867C11.9979 8.31088 12.3051 7.83925 12.4061 7.30625C12.4317 7.18422 12.3895 7.05785 12.2957 6.97574C12.2019 6.89362 12.071 6.86857 11.9535 6.91022C11.8359 6.95186 11.75 7.05371 11.7288 7.17659C11.6612 7.53224 11.456 7.84686 11.1578 8.05211C10.5841 8.43851 9.81466 8.35081 9.34263 7.84521C9.21417 7.70428 8.9958 7.69417 8.85487 7.82263C8.71394 7.95108 8.70383 8.16946 8.83228 8.31039C9.1248 8.63336 9.51139 8.85627 9.93745 8.94763C9.74427 9.21916 9.43138 9.38011 9.09815 9.37936C8.9077 9.37936 8.75332 9.53375 8.75332 9.72419C8.75332 9.91463 8.9077 10.069 9.09815 10.069C9.81199 10.0719 10.4525 9.63097 10.7047 8.96315C11.0089 8.91258 11.2981 8.79491 11.5512 8.61867Z" fill="#FF5364"/>
<path d="M14.7668 12.4066C14.5133 12.536 14.2409 12.6244 13.9598 12.6687C13.9416 12.6716 13.9231 12.6727 13.9047 12.6721C13.7231 12.6738 13.5713 12.5343 13.5576 12.3532C13.544 12.1721 13.6731 12.0115 13.8529 11.9859C14.0529 11.9557 14.247 11.8952 14.4288 11.8066C14.5667 11.9913 14.6803 12.193 14.7668 12.4066Z" fill="#FF5364"/>
<path d="M7.08309 9.99966C7.06568 10.0964 7.05645 10.1945 7.0555 10.2928C7.05481 10.4221 7.07222 10.551 7.10723 10.6755C6.89059 10.7537 6.66443 10.8024 6.43481 10.8204C6.39068 10.6514 6.36751 10.4777 6.36585 10.3031C5.75845 10.2369 5.29802 9.72445 5.29688 9.11345C5.29573 8.92141 5.44968 8.76437 5.64171 8.76173C5.73273 8.76117 5.82024 8.79685 5.88493 8.8609C5.94961 8.92494 5.98617 9.01208 5.98654 9.10311V9.11345C5.99169 9.38594 6.2074 9.60768 6.47964 9.62035C6.52732 9.46481 6.59329 9.31549 6.67619 9.17552C6.7225 9.09645 6.79876 9.03941 6.88769 9.01734C6.97663 8.99527 7.0707 9.01003 7.14861 9.05828C7.31075 9.15851 7.36287 9.37006 7.26585 9.53414C7.17829 9.67749 7.11644 9.83503 7.08309 9.99966Z" fill="#FF5364"/>
<path d="M12.2116 12.017C12.0044 12.0832 11.7904 12.126 11.5737 12.1445C11.4166 11.9536 11.3226 11.7187 11.3047 11.4721C11.3381 11.4728 11.3714 11.4716 11.4047 11.4687C11.6095 11.4557 11.812 11.4187 12.0081 11.3584C12.1271 11.3176 12.2588 11.3447 12.3518 11.4293C12.4449 11.5138 12.4846 11.6423 12.4554 11.7646C12.4262 11.8869 12.3328 11.9836 12.2116 12.017Z" fill="#FF5364"/>
<path d="M9.24158 5.86175C9.24158 5.67131 9.0872 5.51692 8.89676 5.51692C8.02111 5.51787 7.3115 6.22749 7.31055 7.10314C7.31055 7.29358 7.46493 7.44796 7.65538 7.44796C7.84582 7.44796 8.0002 7.29358 8.0002 7.10314C8.0002 6.86535 8.09466 6.63731 8.2628 6.46918C8.43093 6.30104 8.65898 6.20658 8.89676 6.20658C9.0872 6.20658 9.24158 6.05219 9.24158 5.86175Z" fill="#FF5364"/>
<path d="M4.74144 7.80071C4.6788 7.80078 4.61736 7.7836 4.56385 7.75105C4.2795 7.57947 4.06437 7.31357 3.95592 6.99967C3.90346 6.85044 3.87676 6.69337 3.87695 6.53519C3.87695 5.7537 4.50926 5.11954 5.29075 5.11726C5.73854 5.11555 6.16012 5.32819 6.42488 5.68933C6.49837 5.78825 6.5135 5.91887 6.46457 6.03197C6.41564 6.14508 6.31009 6.22348 6.18767 6.23766C6.06526 6.25184 5.94458 6.19963 5.87109 6.10071C5.73594 5.91629 5.52076 5.80761 5.29213 5.80829C4.96574 5.81013 4.6804 6.02879 4.59374 6.34346C4.50709 6.65814 4.64028 6.99205 4.91971 7.16071C5.05258 7.2406 5.11579 7.39935 5.07421 7.54871C5.03263 7.69807 4.89648 7.80131 4.74144 7.80105V7.80071Z" fill="#FF5364"/>
<path d="M12.1414 4.52091C11.951 4.52091 11.7966 4.36652 11.7966 4.17608C11.7966 3.77548 11.4719 3.45073 11.0713 3.45073C10.6707 3.45073 10.3459 3.77548 10.3459 4.17608C10.3459 4.36652 10.1915 4.52091 10.0011 4.52091C9.81064 4.52091 9.65625 4.36652 9.65625 4.17608C9.65625 3.3946 10.2898 2.76108 11.0713 2.76108C11.8527 2.76108 12.4863 3.3946 12.4863 4.17608C12.4863 4.26753 12.4499 4.35524 12.3853 4.41991C12.3206 4.48458 12.2329 4.52091 12.1414 4.52091Z" fill="#FF5364"/>
<path d="M15.3758 8.49688C15.2157 8.49531 15.0777 8.38374 15.0427 8.22751C15.0077 8.07127 15.0848 7.91148 15.2289 7.84171C15.3663 7.77713 15.4804 7.67162 15.5555 7.53964C15.7309 7.24068 15.6699 6.85934 15.4099 6.63006C15.1499 6.40078 14.7639 6.38788 14.4892 6.59929C14.3369 6.71356 14.1208 6.68268 14.0065 6.53033C13.8922 6.37797 13.9231 6.16183 14.0755 6.04757C14.3168 5.86487 14.6107 5.76519 14.9134 5.76343C15.5796 5.75891 16.1591 6.21891 16.3058 6.86878C16.4525 7.51864 16.1269 8.18299 15.5234 8.46515C15.4772 8.48664 15.4268 8.49748 15.3758 8.49688Z" fill="#FF5364"/>
</g>
<defs>
<clipPath id="clip0_280_5264">
<rect width="20" height="20" fill="white"/>
</clipPath>
</defs>
</svg>
