<svg width="54" height="54" viewBox="0 0 54 54" fill="none" xmlns="http://www.w3.org/2000/svg">
<g clip-path="url(#clip0_127_15984)">
<path d="M26.7998 0L16.7168 48.9585H44.0051L47.3662 43.917V0H26.7998Z" fill="#E37A7A"/>
<path d="M9.99379 0C8.13754 0 6.63281 1.50472 6.63281 3.36097V48.9585H26.7988V0H9.99379Z" fill="#EC8C8C"/>
<path d="M47.3657 43.917H26.7993L21.7578 48.9585L26.7993 54.0001H47.3657V50.7511L44.0047 48.9585L47.3657 47.166V43.917Z" fill="#CC6262"/>
<path d="M11.6743 43.917C8.89448 43.917 6.63281 46.1786 6.63281 48.9585C6.63281 51.7384 8.89438 54.0001 11.6743 54.0001H26.7988V43.917H11.6743Z" fill="#E37A7A"/>
<path d="M26.7982 50.7509H47.3646V47.1658H26.7982L24.1094 48.9584L26.7982 50.7509Z" fill="#FFF3CC"/>
<path d="M11.7867 47.1658C10.7967 47.1658 9.99414 47.9683 9.99414 48.9584C9.99414 49.9484 10.7967 50.7509 11.7867 50.7509H26.7991V47.1658H11.7867Z" fill="white"/>
<path d="M40.2442 6.7197H26.8002L20.0781 21.9586L26.8002 37.1974H40.2442V6.7197Z" fill="#3D4566"/>
<path d="M13.3555 6.7197H26.7995V37.1974H13.3555V6.7197Z" fill="#4D5E80"/>
<path d="M33.5207 13.4438H26.7988L24.0254 16.8048L26.7988 20.1657H33.5207V13.4438Z" fill="#FFD340"/>
<path d="M20.0781 13.4438H26.8001V20.1657H20.0781V13.4438Z" fill="#FFE487"/>
</g>
<defs>
<clipPath id="clip0_127_15984">
<rect width="54" height="54" fill="white"/>
</clipPath>
</defs>
</svg>
