<svg width="52" height="52" viewBox="0 0 52 52" fill="none" xmlns="http://www.w3.org/2000/svg">
<g clip-path="url(#clip0_280_5525)">
<path d="M7.71147 27.1924H5.21906C4.79019 27.1931 4.42192 27.4975 4.34044 27.9186L0.41354 48.0731C0.311648 48.5996 0.450745 49.144 0.79268 49.5571C1.13461 49.9702 1.64349 50.2086 2.17975 50.2069H21.5184C21.5184 51.1931 23.5266 52 26.0011 52C28.4756 52 30.4839 51.1931 30.4839 50.2069H49.8225C50.3588 50.2086 50.8676 49.9702 51.2096 49.5571C51.5515 49.144 51.6906 48.5996 51.5887 48.0731L47.6618 27.9186C47.5803 27.4975 47.2121 27.1931 46.7832 27.1924H7.71147Z" fill="#EC8C8C"/>
<path d="M26.0009 29.8014V46.6207C24.6892 46.0509 23.3222 45.6183 21.9216 45.3296C16.5976 44.1722 11.0614 44.4538 5.88228 46.1455C5.58459 46.2363 5.26112 46.1676 5.0261 45.9635C4.79109 45.7595 4.6776 45.4489 4.72573 45.1414L7.71125 27.1924L7.96228 25.6772C8.02653 25.2927 8.33012 24.9927 8.71538 24.9331C9.32504 24.8434 9.95262 24.7538 10.5802 24.6821C11.6758 26.8117 13.8694 28.1507 16.2643 28.1517C16.4257 28.1517 16.5781 28.1428 16.7306 28.1338C17.3276 28.0872 17.9156 27.9606 18.4788 27.7572C18.4807 27.7763 18.4868 27.7947 18.4968 27.811C19.1676 29.6899 20.9486 30.9431 22.9437 30.94C24.0671 30.9437 25.1536 30.5391 26.0009 29.8014Z" fill="#DCF2FD"/>
<path d="M46.1186 46.1455C40.9395 44.4538 35.4033 44.1722 30.0793 45.3296C28.6787 45.6183 27.3117 46.0509 26 46.6207V29.8014C26.1885 29.6472 26.3626 29.4762 26.52 29.2903C27.4158 29.6466 28.3712 29.8292 29.3352 29.8283H29.389C29.4355 30.4693 29.6799 31.0802 30.0883 31.5765C30.9585 32.4368 32.0463 33.0442 33.2352 33.3338C34.0979 33.6092 34.8674 34.1181 35.4586 34.8041C35.9856 35.457 36.8786 35.6866 37.6552 35.3689C38.3388 35.0736 38.7824 34.4012 38.7848 33.6565C38.7858 33.4617 38.7555 33.268 38.6952 33.0827C38.6055 32.8048 38.5069 32.5269 38.3903 32.2579C38.1655 31.7024 37.8702 31.1781 37.5117 30.6979C39.2898 29.7363 40.5386 28.023 40.9097 26.0358C40.9366 26 40.9724 25.9641 40.9993 25.9282C41.3061 25.5673 41.557 25.1623 41.7435 24.7269C42.2635 24.7896 42.7745 24.8524 43.2855 24.9331C43.6708 24.9927 43.9744 25.2927 44.0386 25.6772L44.2897 27.1924L47.2752 45.1414C47.3233 45.4489 47.2098 45.7595 46.9748 45.9635C46.7398 46.1676 46.4163 46.2363 46.1186 46.1455Z" fill="#CBEBFE"/>
<path d="M30.4831 50.2069C30.4831 51.1931 28.4748 52 26.0003 52C23.5259 52 21.5176 51.1931 21.5176 50.2069L21.921 45.3297C23.3216 45.6184 24.6887 46.051 26.0003 46.6207C27.312 46.051 28.679 45.6184 30.0796 45.3297L30.4831 50.2069Z" fill="#E37A7A"/>
<path d="M42.1392 22.853C42.1384 23.4981 42.0041 24.1361 41.7447 24.7268C41.5583 25.1623 41.3074 25.5673 41.0006 25.9282C40.9737 25.9641 40.9378 25.9999 40.9109 26.0358C40.5398 28.0229 39.2911 29.7362 37.513 30.6978C37.8715 31.1781 38.1668 31.7023 38.3916 32.2578C38.5082 32.5268 38.6068 32.8047 38.6964 33.0827C38.7568 33.2679 38.787 33.4616 38.7861 33.6565C38.7837 34.4012 38.3401 35.0736 37.6564 35.3689C36.8799 35.6866 35.9869 35.4569 35.4599 34.8041C34.8687 34.118 34.0991 33.6091 33.2364 33.3337C32.0475 33.0441 30.9598 32.4367 30.0895 31.5765C29.6811 31.0801 29.4368 30.4693 29.3902 29.8282H29.3364C28.3724 29.8291 27.417 29.6466 26.5213 29.2903C26.3639 29.4761 26.1898 29.6472 26.0013 29.8013C25.154 30.539 24.0675 30.9436 22.944 30.9399C20.949 30.943 19.168 29.6899 18.4971 27.8109C18.4872 27.7946 18.4811 27.7762 18.4792 27.7572C17.916 27.9605 17.3279 28.0871 16.7309 28.1337C16.5785 28.1427 16.4261 28.1516 16.2647 28.1516C13.8416 28.15 11.6268 26.7811 10.5416 24.6146C9.45643 22.448 9.68663 19.8546 11.1364 17.913C11.0286 17.6202 10.9739 17.3105 10.9751 16.9985C10.9697 15.6736 11.9003 14.529 13.1985 14.2641C13.2033 14.2592 13.2096 14.256 13.2164 14.2551C13.2075 14.1475 13.1985 14.0399 13.1985 13.9234C13.1973 13.4261 13.3012 12.9342 13.5033 12.4799C14.0754 11.1569 15.3792 10.3006 16.8206 10.3013C17.3642 10.2987 17.9011 10.4214 18.3895 10.6599C19.344 9.05294 21.075 8.0682 22.944 8.06888C24.2264 8.06423 25.4653 8.53359 26.4226 9.38681C26.9722 8.5003 27.9719 7.99613 29.0115 8.08119C30.0511 8.16624 30.9555 8.8262 31.3537 9.79026C31.6097 9.76167 31.8671 9.7467 32.1247 9.74543C35.5985 9.75119 38.4893 12.416 38.7771 15.8778H38.804C39.5427 15.8778 40.251 16.1719 40.7725 16.6951C41.294 17.2182 41.5857 17.9275 41.5833 18.6661C41.5816 19.1492 41.4583 19.624 41.2247 20.0468C41.8197 20.8614 42.14 21.8443 42.1392 22.853Z" fill="#FB7B76"/>
<path d="M26.0001 2.68966C25.5049 2.68966 25.1035 2.28826 25.1035 1.7931V0.896552C25.1035 0.4014 25.5049 0 26.0001 0C26.4952 0 26.8966 0.4014 26.8966 0.896552V1.7931C26.8966 2.28826 26.4952 2.68966 26.0001 2.68966Z" fill="#F0C419"/>
<path d="M40.4511 8.8606C40.0885 8.86053 39.7617 8.64209 39.6229 8.30712C39.4842 7.97215 39.5609 7.5866 39.8172 7.33019L40.7138 6.43364C40.9389 6.20058 41.2722 6.10711 41.5857 6.18915C41.8991 6.2712 42.1439 6.516 42.226 6.82946C42.308 7.14292 42.2146 7.47626 41.9815 7.70136L41.0849 8.59791C40.9168 8.76606 40.6888 8.86055 40.4511 8.8606Z" fill="#F0C419"/>
<path d="M11.5522 8.8606C11.3144 8.86055 11.0864 8.76606 10.9183 8.59791L10.0218 7.70136C9.78871 7.47626 9.69524 7.14292 9.77729 6.82946C9.85934 6.516 10.1041 6.2712 10.4176 6.18915C10.7311 6.10711 11.0644 6.20058 11.2895 6.43364L12.1861 7.33019C12.4424 7.5866 12.5191 7.97215 12.3803 8.30712C12.2416 8.64209 11.9148 8.86053 11.5522 8.8606Z" fill="#F0C419"/>
<path d="M18.4531 5.08803C18.0905 5.08812 17.7636 4.8698 17.6247 4.53486L16.5955 2.04962C16.4646 1.75225 16.5049 1.40736 16.7007 1.14812C16.8965 0.888879 17.2173 0.755859 17.5391 0.800423C17.8609 0.844987 18.1334 1.06016 18.2514 1.36286L19.2815 3.8481C19.373 4.06791 19.3732 4.31504 19.2822 4.53502C19.1912 4.75501 19.0165 4.92977 18.7965 5.02079C18.6875 5.06523 18.5709 5.08806 18.4531 5.08803Z" fill="#F0C419"/>
<path d="M33.5492 5.08803C33.4314 5.08778 33.3148 5.06464 33.2058 5.01989C32.986 4.92887 32.8115 4.75425 32.7205 4.53448C32.6295 4.31471 32.6296 4.0678 32.7208 3.8481L33.7509 1.36286C33.8689 1.06016 34.1414 0.844987 34.4632 0.800423C34.7851 0.755859 35.1058 0.888879 35.3016 1.14812C35.4974 1.40736 35.5377 1.75225 35.4068 2.04962L34.3776 4.53486C34.2387 4.8698 33.9118 5.08812 33.5492 5.08803Z" fill="#F0C419"/>
<path d="M44.2236 15.7631C43.7949 15.7644 43.4252 15.462 43.3415 15.0415C43.2579 14.621 43.4836 14.2001 43.8802 14.0372L46.3655 13.008C46.6614 12.8855 47.0003 12.9302 47.2544 13.1252C47.5084 13.3203 47.6392 13.6361 47.5973 13.9536C47.5554 14.2712 47.3473 14.5423 47.0513 14.6648L44.567 15.6941C44.4582 15.7394 44.3415 15.7629 44.2236 15.7631Z" fill="#F0C419"/>
<path d="M7.77788 15.7631C7.66 15.7629 7.54331 15.7394 7.4345 15.6941L4.95016 14.6648C4.65419 14.5423 4.44607 14.2712 4.4042 13.9536C4.36232 13.6361 4.49304 13.3203 4.74713 13.1252C5.00121 12.9302 5.34006 12.8855 5.63602 13.008L8.12126 14.0372C8.51784 14.2001 8.74359 14.621 8.65993 15.0415C8.57627 15.462 8.20661 15.7644 7.77788 15.7631Z" fill="#F0C419"/>
<path d="M40.9981 25.9282C40.9712 25.9641 40.9353 26 40.9084 26.0358C40.7504 26.8993 40.4212 27.7223 39.9401 28.4565C39.4706 28.5898 38.9847 28.6562 38.4967 28.6538C37.6082 28.6512 36.7328 28.4393 35.9415 28.0351C35.567 27.8347 35.2152 27.5942 34.8925 27.3179C34.535 27.4564 34.1553 27.5293 33.7719 27.5331C32.5876 27.5392 31.5028 26.8716 30.9746 25.8117C30.8305 25.525 30.8502 25.1832 31.0264 24.9151C31.2026 24.6469 31.5085 24.4931 31.8288 24.5116C32.1492 24.5301 32.4353 24.7181 32.5795 25.0048C32.7565 25.3447 33.0702 25.593 33.4418 25.6871C33.8133 25.7813 34.2074 25.7125 34.525 25.4979C34.8836 25.2532 35.0983 24.8472 35.0988 24.4131C35.1001 24.2052 35.0541 23.9998 34.9643 23.8124C34.7838 23.3789 34.9683 22.8795 35.3874 22.6676C35.8065 22.4557 36.318 22.6031 36.5601 23.0055C36.7781 23.4427 36.8917 23.9245 36.8919 24.4131C36.8846 25.0395 36.6877 25.6491 36.327 26.1614C36.4705 26.26 36.6139 26.3586 36.7574 26.4393C37.2953 26.7162 37.8916 26.8607 38.4967 26.8607C39.4164 26.8658 40.3061 26.5341 40.9981 25.9282Z" fill="#FF5364"/>
<path d="M30.034 22.4082C31.1955 21.608 31.9942 20.3818 32.2566 18.996C32.3233 18.6787 32.2136 18.3501 31.9696 18.1366C31.7256 17.9231 31.3854 17.858 31.0798 17.9663C30.7742 18.0746 30.5509 18.3394 30.4957 18.6589C30.3199 19.5836 29.7864 20.4016 29.0111 20.9352C27.5194 21.9398 25.5189 21.7118 24.2916 20.3973C23.9576 20.0309 23.3899 20.0046 23.0234 20.3385C22.657 20.6725 22.6307 21.2403 22.9647 21.6067C23.7253 22.4464 24.7304 23.026 25.8382 23.2636C25.3359 23.9695 24.5224 24.388 23.656 24.386C23.1608 24.386 22.7594 24.7874 22.7594 25.2826C22.7594 25.7777 23.1608 26.1791 23.656 26.1791C25.512 26.1866 27.1773 25.0402 27.833 23.3039C28.6241 23.1724 29.3759 22.8665 30.034 22.4082Z" fill="#FF5364"/>
<path d="M38.3904 32.2579C37.7314 32.5942 37.0233 32.8241 36.2925 32.9393C36.245 32.9467 36.197 32.9497 36.149 32.9482C35.6768 32.9526 35.2822 32.59 35.2467 32.1191C35.2112 31.6482 35.547 31.2305 36.0145 31.1641C36.5343 31.0854 37.0392 30.9282 37.5118 30.6979C37.8703 31.1781 38.1656 31.7024 38.3904 32.2579Z" fill="#FF5364"/>
<path d="M18.4137 26C18.3684 26.2515 18.3444 26.5064 18.342 26.762C18.3402 27.0984 18.3854 27.4334 18.4764 27.7572C17.9132 27.9605 17.3252 28.0872 16.7282 28.1337C16.6134 27.6945 16.5532 27.2429 16.5489 26.7889C14.9696 26.6167 13.7725 25.2844 13.7695 23.6958C13.7665 23.1965 14.1668 22.7882 14.6661 22.7813C14.9028 22.7799 15.1303 22.8727 15.2985 23.0392C15.4667 23.2057 15.5617 23.4322 15.5627 23.6689V23.6958C15.5761 24.4043 16.1369 24.9808 16.8447 25.0137C16.9687 24.6094 17.1402 24.2211 17.3558 23.8572C17.4761 23.6516 17.6744 23.5033 17.9057 23.4459C18.1369 23.3885 18.3815 23.4269 18.584 23.5524C19.0056 23.813 19.1411 24.363 18.8889 24.7896C18.6612 25.1623 18.5004 25.5719 18.4137 26Z" fill="#FF5364"/>
<path d="M31.7466 31.2446C31.2079 31.4169 30.6515 31.5282 30.088 31.5763C29.6796 31.0799 29.4352 30.4691 29.3887 29.828C29.4754 29.8297 29.5622 29.8267 29.6487 29.8191C30.1811 29.7853 30.7077 29.689 31.2176 29.5322C31.5268 29.4261 31.8693 29.4967 32.1113 29.7165C32.3533 29.9363 32.4565 30.2704 32.3806 30.5883C32.3047 30.9063 32.0618 31.1578 31.7466 31.2446Z" fill="#FF5364"/>
<path d="M24.0266 15.2413C24.0266 14.7461 23.6252 14.3447 23.13 14.3447C20.8533 14.3472 19.0083 16.1922 19.0059 18.4689C19.0059 18.964 19.4073 19.3654 19.9024 19.3654C20.3976 19.3654 20.799 18.964 20.799 18.4689C20.799 17.8506 21.0446 17.2577 21.4817 16.8206C21.9189 16.3834 22.5118 16.1378 23.13 16.1378C23.6252 16.1378 24.0266 15.7364 24.0266 15.2413Z" fill="#FF5364"/>
<path d="M12.3258 20.2826C12.1629 20.2828 12.0032 20.2381 11.8641 20.1535C11.1248 19.7074 10.5654 19.016 10.2834 18.1999C10.1471 17.8119 10.0776 17.4035 10.0781 16.9922C10.0781 14.9604 11.7221 13.3116 13.754 13.3056C14.9182 13.3012 16.0143 13.8541 16.7027 14.793C16.8938 15.0502 16.9331 15.3898 16.8059 15.6839C16.6787 15.978 16.4043 16.1818 16.086 16.2187C15.7677 16.2555 15.4539 16.1198 15.2629 15.8626C14.9115 15.3831 14.352 15.1006 13.7576 15.1023C12.909 15.1071 12.1671 15.6756 11.9418 16.4938C11.7165 17.3119 12.0628 18.1801 12.7893 18.6186C13.1348 18.8263 13.2991 19.2391 13.191 19.6274C13.0829 20.0157 12.7289 20.2842 12.3258 20.2835V20.2826Z" fill="#FF5364"/>
<path d="M31.565 11.7546C31.0698 11.7546 30.6684 11.3532 30.6684 10.858C30.6684 9.81646 29.8241 8.97212 28.7825 8.97212C27.741 8.97212 26.8966 9.81646 26.8966 10.858C26.8966 11.3532 26.4952 11.7546 26.0001 11.7546C25.5049 11.7546 25.1035 11.3532 25.1035 10.858C25.1035 8.82616 26.7507 7.17902 28.7825 7.17902C30.8144 7.17902 32.4615 8.82616 32.4615 10.858C32.4615 11.0958 32.3671 11.3238 32.1989 11.492C32.0308 11.6601 31.8028 11.7546 31.565 11.7546Z" fill="#FF5364"/>
<path d="M39.974 22.0919C39.5577 22.0878 39.199 21.7978 39.1079 21.3916C39.0168 20.9853 39.2173 20.5699 39.592 20.3885C39.9493 20.2206 40.2459 19.9462 40.4411 19.6031C40.8972 18.8258 40.7385 17.8343 40.0626 17.2382C39.3867 16.6421 38.3831 16.6085 37.6689 17.1582C37.2728 17.4553 36.7108 17.375 36.4137 16.9789C36.1166 16.5828 36.1969 16.0208 36.593 15.7237C37.2205 15.2487 37.9847 14.9895 38.7717 14.9849C40.5038 14.9732 42.0104 16.1692 42.3919 17.8589C42.7734 19.5485 41.9268 21.2758 40.3577 22.0094C40.2376 22.0653 40.1064 22.0935 39.974 22.0919Z" fill="#FF5364"/>
</g>
<defs>
<clipPath id="clip0_280_5525">
<rect width="52" height="52" fill="white"/>
</clipPath>
</defs>
</svg>
