<svg width="54" height="54" viewBox="0 0 54 54" fill="none" xmlns="http://www.w3.org/2000/svg">
<g clip-path="url(#clip0_127_15996)">
<path d="M14.294 0C12.9804 0 11.7892 0.534388 10.9264 1.39712C10.0637 2.25995 9.5293 3.45113 9.5293 4.76471V27V49.2353C9.5293 50.549 10.0637 51.7402 10.9264 52.6029C11.7892 53.4657 12.9804 54 14.294 54H20.6469H26.9999L28.0587 27L26.9999 0H20.6469H14.294Z" fill="#595454"/>
<path d="M44.4706 49.2353V27V4.76471C44.4706 3.45113 43.9362 2.25995 43.0735 1.39712C42.2106 0.534388 41.0195 0 39.7059 0H33.3529H27V27V54H33.3529H39.7059C41.0195 54 42.2106 53.4657 43.0735 52.6029C43.9362 51.7402 44.4706 50.549 44.4706 49.2353Z" fill="#403B40"/>
<path d="M18.0654 3.17642H16.1794H14.2933C13.8554 3.17642 13.4583 3.35452 13.1707 3.64209C12.8833 3.92967 12.7051 4.32673 12.7051 4.76466V26.2058V47.647L19.8521 48.7058L26.9992 47.647L28.058 27.7941L26.9992 7.94113L18.0654 3.17642Z" fill="#BAE9FF"/>
<path d="M27 7.94113V27.7941V47.647L34.1471 48.7058L41.2941 47.647V26.2058V4.76466C41.2941 4.32673 41.116 3.92967 40.8284 3.64209C40.5409 3.35452 40.1438 3.17642 39.7059 3.17642H37.8199H35.9339L27 7.94113Z" fill="#A6CFE7"/>
<path d="M12.7051 47.6471V48.4412V49.2354C12.7051 49.6733 12.8833 50.0704 13.1707 50.3579C13.4583 50.6455 13.8554 50.8236 14.2933 50.8236H20.6463H26.9992L28.058 49.2354L26.9992 47.6471H19.8521H12.7051Z" fill="#7397B8"/>
<path d="M41.2941 49.2354V48.4412V47.6471H34.1471H27V49.2354V50.8236H33.3529H39.7059C40.1438 50.8236 40.5409 50.6455 40.8284 50.3579C41.116 50.0704 41.2941 49.6733 41.2941 49.2354Z" fill="#5A7BA0"/>
<path d="M33.3535 30.1765H34.9418H36.53V31.7647V33.353L39.7065 31.7647L42.8829 30.1765H48.4418H54.0006V23.8236V17.4706H43.6771H33.3535V23.8236V30.1765Z" fill="#FFE487"/>
<path d="M38.1172 25.4116H43.676H49.2348V23.8233V22.2351H43.676H38.1172V23.8233V25.4116Z" fill="#FFD340"/>
<path d="M20.6471 23.8235H0V36.5294H11.1176L17.4706 39.7059V36.5294H20.6471V23.8235Z" fill="#FF7C6E"/>
<path d="M4.76562 28.5884H15.8833V31.7649H4.76562V28.5884Z" fill="#FF405C"/>
<path d="M18.0664 3.17642L19.4561 5.55878L20.8458 7.94113H23.9231H27.0002L28.059 5.55878L27.0002 3.17642H22.5333H18.0664Z" fill="#7397B8"/>
<path d="M35.9338 3.17642H31.467H27V5.55878V7.94113H30.2758H33.5515L34.7427 5.55878L35.9338 3.17642Z" fill="#5A7BA0"/>
</g>
<defs>
<clipPath id="clip0_127_15996">
<rect width="54" height="54" fill="white"/>
</clipPath>
</defs>
</svg>
