<svg width="62" height="62" viewBox="0 0 62 62" fill="none" xmlns="http://www.w3.org/2000/svg">
<path d="M5 11.0938V57H17.1875L31 11.0938H5Z" fill="#E07F7F"/>
<path d="M57 11.0938H31L44.8125 57H57V11.0938Z" fill="#EC8C8C"/>
<path d="M12.6172 17.1875H9.57031V20.2344H12.6172V17.1875Z" fill="white"/>
<path d="M12.6172 23.2812H9.57031V26.3281H12.6172V23.2812Z" fill="white"/>
<path d="M12.6172 29.375H9.57031V32.4219H12.6172V29.375Z" fill="white"/>
<path d="M12.6172 35.4688H9.57031V38.5156H12.6172V35.4688Z" fill="white"/>
<path d="M52.4297 17.1875H49.3828V20.2344H52.4297V17.1875Z" fill="#BAE9FF"/>
<path d="M52.4297 23.2812H49.3828V26.3281H52.4297V23.2812Z" fill="#BAE9FF"/>
<path d="M52.4297 29.375H49.3828V32.4219H52.4297V29.375Z" fill="#BAE9FF"/>
<path d="M52.4297 35.4688H49.3828V38.5156H52.4297V35.4688Z" fill="#BAE9FF"/>
<path d="M12.6172 41.5625H9.57031V44.6094H12.6172V41.5625Z" fill="white"/>
<path d="M52.4297 41.5625H49.3828V44.6094H52.4297V41.5625Z" fill="#BAE9FF"/>
<path d="M44.8125 5H31L24.9062 31L38.7188 57H44.8125V5Z" fill="#E07F7F"/>
<path d="M17.1875 5V57H23.2812L31 50.9062V5H17.1875Z" fill="#EC8C8C"/>
<path d="M38.7188 11.0938H31L27.9531 15.6133L31 20.1328H38.7188V11.0938Z" fill="#BAE9FF"/>
<path d="M31 11.0938H23.2812V20.1328H31V11.0938Z" fill="white"/>
<path d="M38.7188 23.2812H31L27.9531 27.8008L31 32.3203H38.7188V23.2812Z" fill="#BAE9FF"/>
<path d="M31 23.2812H23.2812V32.3203H31V23.2812Z" fill="white"/>
<path d="M38.7188 42.9844V35.3672H31L27.9531 46.0312L38.7188 42.9844Z" fill="#BAE9FF"/>
<path d="M31 35.3672H23.2812V42.9844L31 46.0312V35.3672Z" fill="white"/>
<path d="M31 42.9844L26.9375 49.9922L31 57H38.7188V42.9844H31Z" fill="#3D4566"/>
<path d="M31 42.9844H23.2812V57H31V42.9844Z" fill="#4D5E80"/>
</svg>
