<svg width="56" height="62" viewBox="0 0 56 62" fill="none" xmlns="http://www.w3.org/2000/svg">
<g clip-path="url(#clip0_127_10571)">
<path d="M34 7.04541H38.0973V33.5645H34V7.04541Z" fill="#D5D5D3"/>
<path d="M55 44H22V30.0544C22 28.9198 22.7919 28 23.7688 28H53.2312C54.2081 28 55 28.9198 55 30.0544V44Z" fill="#EC8C8C"/>
<path d="M55 55H11V42.0223C11 40.9056 11.8006 40 12.7881 40H55V55Z" fill="#E78585"/>
<path d="M53.2 62H1.79996C0.805844 62 0 61.1134 0 60.0197V52.9799C0 51.8866 0.805844 51 1.79996 51H55V60.0197C55 61.1134 54.1942 62 53.2 62Z" fill="#E37A7A"/>
<path d="M55.2321 8.62366L38.3792 14.6055L34.9872 15.8093C34.5052 15.9796 34 15.623 34 15.1112V0.740265C34 0.229874 34.5052 -0.128204 34.9872 0.0435028L38.3792 1.24687L55.2321 7.22872C55.8891 7.46144 55.8891 8.38999 55.2321 8.62366Z" fill="#F64346"/>
<path d="M38.3792 1.24736V14.606L34.9872 15.8098C34.5057 15.9797 34 15.6235 34 15.1117V0.740754C34 0.230362 34.5057 -0.127716 34.9872 0.0439911L38.3792 1.24736Z" fill="#CB353C"/>
</g>
<defs>
<clipPath id="clip0_127_10571">
<rect width="56" height="62" fill="white"/>
</clipPath>
</defs>
</svg>
