<svg width="41" height="55" viewBox="0 0 41 55" fill="none" xmlns="http://www.w3.org/2000/svg">
<g clip-path="url(#clip0_127_15840)">
<path d="M12.5743 19.6464V13.892H11.4744C11.2048 13.892 10.946 13.8491 10.7087 13.7632C9.59801 14.257 8.74609 15.5239 8.74609 16.7907C8.74609 18.6051 10.5362 20.0866 12.5743 19.8612C12.5851 19.786 12.5743 19.7216 12.5743 19.6464Z" fill="#FFB1A0"/>
<path d="M30.0101 13.5916C29.7513 13.7848 29.4386 13.8922 29.1043 13.8922C28.8994 13.8922 28.5867 13.8707 28.3926 13.8277V19.6466C28.3926 19.7218 28.3926 19.7862 28.3926 19.8506C30.4307 20.0653 32.2208 18.5838 32.2208 16.7694C32.2316 15.4059 31.3258 13.9995 30.0101 13.5916Z" fill="#FFB1A0"/>
<path d="M12.5743 19.3356C11.6685 18.7773 11.0646 17.8326 11.0646 16.7912C11.0646 15.7069 11.6901 14.6333 12.5743 14.0321V13.9032H11.4744C11.2048 13.9032 10.946 13.8603 10.7087 13.7744C9.59801 14.2683 8.74609 15.5351 8.74609 16.8019C8.74609 18.6163 10.5362 20.0979 12.5743 19.8724C12.5743 19.808 12.5743 19.7328 12.5743 19.6684V19.3356Z" fill="#FFA68E"/>
<path d="M30.7219 13.9244C30.5062 13.7741 30.269 13.6667 30.0101 13.5808C29.7513 13.7741 29.4386 13.8814 29.1043 13.8814C28.8994 13.8814 28.5867 13.8599 28.3926 13.817V19.6466C28.3926 19.7217 28.3926 19.7861 28.3926 19.8506C29.2445 19.9365 30.0641 19.7325 30.7219 19.3245V13.9244Z" fill="#FFA68E"/>
<path d="M3.9253 39.3041C3.9253 36.3088 5.76933 34.0328 6.83693 32.9592L4.33509 33.9255C2.48027 34.6877 0 37.0818 0 40.6247V44.8439H3.9253C3.9253 42.6215 3.9253 40.5817 3.9253 39.3041Z" fill="#FF4756"/>
<path d="M36.6649 33.9685L25.2988 29.5453C25.2233 29.4916 25.1478 29.4272 25.0939 29.3413L20.5108 33.9685L20.5 33.8182L15.9169 29.3091C15.863 29.395 15.7875 29.4594 15.712 29.5131L4.33509 33.9255C2.48027 34.6878 0 37.0819 0 40.6247V44.8439H6.61047V54.9679H15.7012H21.4598C21.3411 54.9893 21.2225 55.0001 21.1039 55.0001H34.3895V44.8761H41V40.6569C41 37.1141 38.5197 34.72 36.6649 33.9685Z" fill="#FF656F"/>
<path d="M25.5479 29.7172C25.2352 29.5991 24.9224 29.1912 24.9224 28.8691V25.9167C22.1079 27.7526 18.5384 27.5057 16.0474 25.906V28.8691C16.0474 29.0624 15.9935 29.2019 15.918 29.32L20.0374 33.3567L20.5011 34.2907C21.6873 33.5929 22.1726 33.142 23.3372 32.4334L25.6234 29.7602C25.591 29.7387 25.5587 29.728 25.5479 29.7172Z" fill="#FFB1A0"/>
<path d="M16.0474 25.8948V28.8579C16.0474 29.0511 15.9935 29.1907 15.918 29.3088L20.0374 33.3455V31.9391V27.1831C18.5923 27.0972 17.2012 26.6463 16.0474 25.8948Z" fill="#FFA68E"/>
<path d="M0 44.6506H7.00947V48.6444H0V44.6506Z" fill="#FF7F87"/>
<path d="M3.9253 44.6506H0V48.6444H3.9253C3.9253 47.3239 3.9253 45.9604 3.9253 44.6506Z" fill="#FF656F"/>
<path d="M7.00947 48.376H0V53.5292C0 54.3236 0.647028 54.9678 1.44503 54.9678H7.00947V48.376Z" fill="#FFB1A0"/>
<path d="M3.9253 48.376H0V53.5292C0 54.3236 0.647028 54.9678 1.44503 54.9678H3.9253C3.9253 53.6151 3.9253 51.0814 3.9253 48.376Z" fill="#FFA68E"/>
<path d="M26.2272 10.8003C26.2272 10.65 26.0223 10.5963 25.9468 10.7251C25.0086 12.4751 23.1538 13.6668 21.0186 13.6668H16.9531V19.754C16.9531 23.0929 19.0452 26.1848 22.4205 27.3121C25.9145 26.4962 28.5133 23.372 28.5133 19.6467V13.6024C27.2085 13.334 26.2272 12.1745 26.2272 10.8003Z" fill="#FFCEBE"/>
<path d="M17.0499 19.6469V13.667H12.4668V19.6469C12.4668 23.7587 15.7019 27.5163 20.6086 27.5163C21.3742 27.5163 22.1183 27.4089 22.83 27.1942C19.2714 26.2172 17.0499 23.0609 17.0499 19.6469Z" fill="#FFB1A0"/>
<path d="M27.9947 3.63947C27.2398 3.69315 26.5497 3.22077 26.3987 2.47999C26.1507 1.23463 25.536 0 23.1096 0H14.7091C11.6249 0 9.12305 2.49073 9.12305 5.56119V11.6592C9.12305 12.9475 10.1799 13.9996 11.4739 13.9996H21.0176C23.1528 13.9996 25.0076 12.8079 25.9458 11.058C26.0213 10.9184 26.2262 10.9721 26.2262 11.1331C26.2262 12.7113 27.5202 13.9996 29.1054 13.9996C29.9358 13.9996 30.6152 13.3232 30.6152 12.4966C30.6152 10.1884 30.6152 8.49209 30.6152 6.1302C30.6152 4.62717 29.2995 3.54285 27.9947 3.63947Z" fill="#FFE181"/>
<path d="M14.3316 11.8202V5.50752C14.3316 2.89869 16.0786 0.697833 18.4618 0H14.7091C11.6249 0 9.12305 2.49073 9.12305 5.56119V11.6592C9.12305 12.9475 10.1799 13.9996 11.4739 13.9996H15.7012C14.8924 13.6131 14.3316 12.7865 14.3316 11.8202Z" fill="#FEC458"/>
<path d="M7.83844 54.9679V41.7842C7.83844 41.3225 7.461 40.9575 7.00809 40.9575C6.55517 40.9575 6.17773 41.3333 6.17773 41.7842V54.9679H7.83844Z" fill="#FF4756"/>
<path d="M37.0737 39.3361C37.0737 40.6137 37.0737 42.6535 37.0737 44.8758H40.999V40.6566C40.999 37.1138 38.5187 34.7197 36.6639 33.9574L34.1621 32.9805C35.2297 34.0648 37.0737 36.3515 37.0737 39.3361Z" fill="#FF4756"/>
<path d="M25.2885 29.5452C25.1915 29.4808 25.0944 29.3949 25.0405 29.2768L20.5329 33.6463L15.9605 29.2339C15.8958 29.352 15.8096 29.4379 15.7125 29.5023L11.7656 31.0375L17.1575 36.4055C17.5889 36.8349 18.3006 36.8349 18.732 36.4055L20.5544 34.7843L22.269 36.4377C22.7004 36.8671 23.4121 36.8671 23.8435 36.4377L29.2354 31.0697L25.2885 29.5452Z" fill="#FF7F87"/>
<path d="M41.0017 48.6764H33.9922V44.6826H41.0017V48.6764Z" fill="#FF7F87"/>
<path d="M37.0742 48.6764H40.9995V44.6826H37.0742C37.0742 45.9924 37.0742 47.3559 37.0742 48.6764Z" fill="#FF656F"/>
<path d="M33.9922 55.0001H39.5566C40.3546 55.0001 41.0017 54.3559 41.0017 53.5615V48.4082H33.9922V55.0001Z" fill="#FFB1A0"/>
<path d="M37.0742 55.0001H39.5545C40.3525 55.0001 40.9995 54.3559 40.9995 53.5615V48.4082H37.0742C37.0742 51.1244 37.0742 53.6581 37.0742 55.0001Z" fill="#FFA68E"/>
<path d="M34.8209 55.0001V41.8164C34.8209 41.3548 34.4434 40.9897 33.9905 40.9897C33.5376 40.9897 33.1602 41.3655 33.1602 41.8164V55.0001H34.8209Z" fill="#FF4756"/>
</g>
<defs>
<clipPath id="clip0_127_15840">
<rect width="41" height="55" fill="white"/>
</clipPath>
</defs>
</svg>
