<svg width="52" height="52" viewBox="0 0 52 52" fill="none" xmlns="http://www.w3.org/2000/svg">
<path d="M41.565 28.1494L41.5476 28.1321C40.8444 27.5133 39.7743 27.5751 39.147 28.2707L36.3996 31.1567V30.3334C36.3996 29.1368 35.4296 28.1667 34.233 28.1667C33.0364 28.1667 32.0663 29.1368 32.0663 30.3334V35.7241L30.515 37.3534C29.8782 38.0051 29.0367 38.4182 28.1316 38.5234C27.9858 38.5507 27.838 38.5652 27.6896 38.5668H24.145C23.9967 38.5652 23.8488 38.5507 23.703 38.5234C22.8058 38.4206 21.9709 38.0138 21.337 37.3708L15.253 30.9747C15.0907 30.8033 14.865 30.7062 14.629 30.7061C14.455 30.7072 14.2856 30.7616 14.1436 30.8621C12.6537 32.2148 12.4752 34.4939 13.7363 36.0621L16.319 38.8614C16.6475 39.1849 16.8324 39.6267 16.8324 40.0878C16.8324 40.5488 16.6475 40.9906 16.319 41.3141L14.993 42.6401L14.369 42.0941C14.0395 41.8039 13.5457 41.8039 13.2163 42.0941L6.05764 48.5421C5.52166 49.022 5.33784 49.7831 5.59572 50.4547C5.85359 51.1264 6.49954 51.5689 7.21897 51.5668H18.9276C19.3561 51.568 19.7698 51.4106 20.089 51.1248L21.6316 49.7381C21.8165 49.5738 21.9215 49.3378 21.9198 49.0905C21.9182 48.8432 21.81 48.6086 21.623 48.4468L20.999 47.9008L22.6976 46.2454C23.1872 45.7688 23.843 45.5014 24.5263 45.5001H26.1556C28.6928 45.5053 31.0719 44.2688 32.5256 42.1894C33.5291 40.7384 34.6081 39.3411 35.7583 38.0034C35.8546 37.8943 35.9389 37.7752 36.0096 37.6481L36.027 37.6221L41.6343 31.6334C42.564 30.6471 42.5332 29.098 41.565 28.1494Z" fill="#FDD7AD"/>
<path d="M21.6316 49.7381L20.089 51.1248C19.7698 51.4106 19.3561 51.5681 18.9276 51.5668H7.21897C6.49954 51.5689 5.85359 51.1264 5.59572 50.4548C5.33784 49.7831 5.52166 49.022 6.05764 48.5421L13.2163 42.0941C13.5457 41.8039 14.0396 41.8039 14.369 42.0941L14.993 42.6401L20.999 47.9008L21.623 48.4468C21.81 48.6086 21.9182 48.8432 21.9198 49.0905C21.9215 49.3378 21.8165 49.5738 21.6316 49.7381Z" fill="#955BA5"/>
<path d="M17.3338 49.8334C17.104 49.8333 16.8836 49.742 16.7211 49.5794L15.1905 48.0489C14.8621 47.7088 14.8668 47.1683 15.2011 46.834C15.5354 46.4997 16.076 46.495 16.416 46.8234L17.9466 48.354C18.1943 48.6018 18.2684 48.9745 18.1343 49.2983C18.0002 49.6221 17.6843 49.8333 17.3338 49.8334Z" fill="#3D324C"/>
<path d="M41.6347 31.6334L36.0273 37.6221C36.2706 37.2257 36.3996 36.7698 36.4 36.3048V31.1567L39.1473 28.2707C39.7746 27.5751 40.8448 27.5133 41.548 28.1321L41.5653 28.1494C42.5335 29.098 42.5644 30.6471 41.6347 31.6334Z" fill="#F9C795"/>
<path d="M26.6286 4.49105L29.4946 10.3289L35.908 11.2649C36.2433 11.3154 36.5212 11.5513 36.6253 11.8741C36.7294 12.1968 36.6419 12.5507 36.3994 12.7876L31.7584 17.3316L32.853 23.7449C32.9116 24.0785 32.7754 24.4164 32.5019 24.6162C32.2283 24.8159 31.865 24.8427 31.5651 24.6852L25.8321 21.6519L20.0991 24.6852C19.7999 24.8416 19.4379 24.8148 19.1649 24.6161C18.892 24.4174 18.7553 24.0812 18.8121 23.7484L19.9067 17.335L15.2692 12.7911C15.0266 12.5541 14.9391 12.2003 15.0432 11.8775C15.1474 11.5548 15.4252 11.3189 15.7606 11.2684L22.1739 10.3324L25.04 4.49451C25.189 4.19238 25.4963 4.0008 25.8332 4.00006C26.17 3.99933 26.4782 4.18957 26.6286 4.49105Z" fill="#F0C419"/>
<path d="M5.57173 11.1313C5.51355 11.1316 5.45549 11.1261 5.3984 11.1148L3.698 10.7768C3.22845 10.6835 2.92346 10.2272 3.0168 9.75763C3.11014 9.28808 3.56645 8.9831 4.036 9.07643L5.7364 9.41443C6.17386 9.50095 6.47426 9.9053 6.4308 10.3491C6.38734 10.7929 6.0142 11.1313 5.56827 11.1313H5.57173Z" fill="#F0C419"/>
<path d="M48.062 20.6005C48.0038 20.6003 47.9458 20.5948 47.8886 20.5841L46.1882 20.2461C45.7187 20.1527 45.4137 19.6964 45.507 19.2269C45.6004 18.7573 46.0567 18.4523 46.5262 18.5457L48.2266 18.8837C48.6635 18.97 48.9638 19.3734 48.9213 19.8166C48.8787 20.2599 48.5073 20.5988 48.062 20.6005Z" fill="#F0C419"/>
<path d="M3.87061 20.6005C3.42468 20.6005 3.05154 20.2621 3.00808 19.8183C2.96462 19.3745 3.26502 18.9702 3.70248 18.8837L5.40288 18.5457C5.87243 18.4523 6.32874 18.7573 6.42208 19.2269C6.51542 19.6964 6.21043 20.1527 5.74088 20.2461L4.04048 20.5841C3.98446 20.5946 3.92761 20.6001 3.87061 20.6005Z" fill="#F0C419"/>
<path d="M46.3608 11.1313C45.9149 11.1313 45.5418 10.7929 45.4983 10.3491C45.4549 9.90529 45.7553 9.50095 46.1927 9.41443L47.8931 9.07643C48.3627 8.9831 48.819 9.28808 48.9123 9.75763C49.0057 10.2272 48.7007 10.6835 48.2311 10.7768L46.5307 11.1148C46.4748 11.1258 46.4179 11.1314 46.3608 11.1313Z" fill="#F0C419"/>
<path d="M42.8687 2.69693C42.4864 2.69778 42.1487 2.44809 42.0375 2.08237C41.9264 1.71664 42.0679 1.32126 42.3859 1.10919L43.8272 0.146325C44.0847 -0.0258289 44.4144 -0.0475542 44.6922 0.0893333C44.97 0.226221 45.1537 0.500925 45.1741 0.809967C45.1944 1.11901 45.0484 1.41544 44.7909 1.58759L43.3488 2.55046C43.2067 2.64558 43.0397 2.69654 42.8687 2.69693Z" fill="#F0C419"/>
<path d="M9.06316 2.69693C8.89188 2.69671 8.7245 2.64574 8.58216 2.55046L7.14089 1.58759C6.88344 1.41544 6.73738 1.11901 6.75774 0.809967C6.7781 0.500925 6.96179 0.226221 7.23961 0.0893333C7.51743 -0.0475542 7.84717 -0.0258289 8.10463 0.146325L9.5459 1.10919C9.86393 1.32126 10.0055 1.71664 9.89428 2.08237C9.78309 2.44809 9.44542 2.69778 9.06316 2.69693Z" fill="#F0C419"/>
</svg>
