<svg width="52" height="52" viewBox="0 0 52 52" fill="none" xmlns="http://www.w3.org/2000/svg">
<g clip-path="url(#clip0_280_5582)">
<path d="M15.8928 26.3517C15.0598 26.8393 14.0258 26.8405 13.191 26.3517C13.0623 26.4271 12.9413 26.5138 12.8275 26.6088C12.567 27.1035 12.2707 27.5763 11.9419 28.0238C11.8418 28.4305 11.8633 28.5977 11.8633 29.8122C11.8633 31.2916 13.0626 32.4909 14.542 32.4909C16.0213 32.4909 17.2207 31.2915 17.2207 29.8122V28.6645C17.2207 27.6779 16.687 26.8166 15.8928 26.3517Z" fill="#57697D"/>
<path d="M15.8928 20.581C15.0598 21.0686 14.0258 21.0697 13.191 20.581C13.0623 20.6564 12.9413 20.7431 12.8275 20.838C12.567 21.3328 12.2707 21.8055 11.9419 22.253C11.8418 22.6599 11.8633 22.8269 11.8633 24.0414C11.8633 25.5209 13.0626 26.7201 14.542 26.7201C16.0213 26.7201 17.2207 25.5208 17.2207 24.0414V22.8938C17.2207 21.9073 16.687 21.0458 15.8928 20.581Z" fill="#57697D"/>
<path d="M17.2202 35.5856V34.438C17.2202 33.4584 16.6927 32.5937 15.8924 32.1252C15.0606 32.6121 14.0224 32.6124 13.1905 32.1252C12.4093 32.5825 11.8627 33.4352 11.8627 34.4686C11.8604 34.6019 11.8613 35.5752 11.8632 35.6039C11.8731 37.0748 13.0682 38.2643 14.5415 38.2643C16.0258 38.2643 17.2202 37.0586 17.2202 35.5856Z" fill="#57697D"/>
<path d="M15.8928 26.3517C15.0598 26.8393 14.0258 26.8405 13.191 26.3517C13.0623 26.4271 12.9413 26.5138 12.8275 26.6088C12.567 27.1035 12.2707 27.5763 11.9419 28.0238C11.8418 28.4305 11.8633 28.5977 11.8633 29.8122C11.8633 31.2916 13.0626 32.4909 14.542 32.4909C16.0213 32.4909 17.2207 31.2915 17.2207 29.8122V28.6645C17.2207 27.6779 16.687 26.8166 15.8928 26.3517Z" fill="#57697D"/>
<path d="M15.8928 20.581C15.0598 21.0686 14.0258 21.0697 13.191 20.581C13.0623 20.6564 12.9413 20.7431 12.8275 20.838C12.567 21.3328 12.2707 21.8055 11.9419 22.253C11.8418 22.6599 11.8633 22.8269 11.8633 24.0414C11.8633 25.5209 13.0626 26.7201 14.542 26.7201C16.0213 26.7201 17.2207 25.5208 17.2207 24.0414V22.8938C17.2207 21.9073 16.687 21.0458 15.8928 20.581Z" fill="#57697D"/>
<path d="M17.2202 35.5856V34.438C17.2202 33.4584 16.6927 32.5937 15.8924 32.1252C15.0606 32.6121 14.0224 32.6124 13.1905 32.1252C12.4093 32.5825 11.8627 33.4352 11.8627 34.4686C11.8604 34.6019 11.8613 35.5752 11.8632 35.6039C11.8731 37.0748 13.0682 38.2643 14.5415 38.2643C16.0258 38.2643 17.2202 37.0586 17.2202 35.5856Z" fill="#57697D"/>
<path d="M15.5467 29.8123V28.6646C15.5467 27.4344 14.7733 26.8173 14.7011 26.7127C14.182 26.7436 13.6557 26.6237 13.1911 26.3517C13.0624 26.4271 12.9414 26.5138 12.8276 26.6088C12.5671 27.1034 12.2708 27.5763 11.9419 28.0238C11.8419 28.4306 11.8632 28.5977 11.8632 29.8122C11.8632 30.9862 12.619 31.9832 13.6701 32.345C14.3979 32.2158 15.5467 31.2737 15.5467 29.8123Z" fill="#57697D"/>
<path d="M14.7036 20.9456L14.7004 20.9419C14.1816 20.9726 13.6555 20.8529 13.1911 20.581C13.0624 20.6564 12.9414 20.7431 12.8276 20.838C12.5671 21.3327 12.2708 21.8055 11.9419 22.253C11.8419 22.6599 11.8632 22.8268 11.8632 24.0414C11.8632 25.2261 12.6326 26.2304 13.6987 26.5839C14.7322 26.2634 15.5467 25.2605 15.5467 24.0414V22.8938C15.5467 22.1254 15.222 21.4339 14.7036 20.9456Z" fill="#57697D"/>
<path d="M13.8093 38.0936C14.8259 37.7114 15.5462 36.7293 15.5462 35.5856C15.5462 34.4419 15.693 33.4212 14.7022 32.4888L14.6989 32.4852C14.1797 32.5157 13.6533 32.396 13.1905 32.1251C12.4093 32.5824 11.8627 33.4351 11.8627 34.4685C11.8604 34.6018 11.8613 35.575 11.8632 35.6038C11.8711 36.7878 12.6473 37.7889 13.718 38.1346L13.8093 38.0936Z" fill="#57697D"/>
<path d="M15.8922 20.581C15.4612 20.8333 14.9766 20.9541 14.4936 20.9456C15.4833 21.8779 15.3367 22.9022 15.3367 24.0415C15.3367 25.1895 14.6144 26.1685 13.5996 26.5496C15.3484 27.2064 17.22 25.9113 17.22 24.0415V22.8939C17.22 21.9073 16.6863 21.0458 15.8922 20.581Z" fill="#3D5168"/>
<path d="M15.8922 26.3517C15.4612 26.604 14.9766 26.7249 14.4936 26.7164C15.4833 27.6487 15.3367 28.673 15.3367 29.8123C15.3367 30.9602 14.6144 31.9392 13.5996 32.3204C15.3483 32.9773 17.22 31.682 17.22 29.8123V28.6646C17.22 27.6779 16.6863 26.8166 15.8922 26.3517Z" fill="#3D5168"/>
<path d="M15.894 32.1251C15.4637 32.3769 14.9781 32.4975 14.4945 32.4888C15.4729 33.4094 15.3385 34.4073 15.3385 35.5856C15.3385 36.7293 14.6182 37.7114 13.6016 38.0936C15.3532 38.7517 17.2219 37.451 17.2219 35.5856V34.4379C17.2219 33.4583 16.6943 32.5936 15.894 32.1251Z" fill="#3D5168"/>
<path d="M38.9886 26.3517C38.1556 26.8393 37.1216 26.8405 36.2868 26.3517C36.1581 26.4271 36.0371 26.5138 35.9233 26.6088C35.6628 27.1035 35.3665 27.5763 35.0376 28.0238C34.9376 28.4305 34.9589 28.5977 34.9589 29.8122C34.9589 31.2916 36.1583 32.4909 37.6376 32.4909C39.1171 32.4909 40.3164 31.2915 40.3164 29.8122V28.6645C40.3164 27.6779 39.7826 26.8166 38.9886 26.3517Z" fill="#57697D"/>
<path d="M38.9886 20.581C38.1556 21.0686 37.1216 21.0697 36.2868 20.581C36.1581 20.6564 36.0371 20.7431 35.9233 20.838C35.6628 21.3328 35.3665 21.8055 35.0376 22.253C34.9376 22.6599 34.9589 22.8269 34.9589 24.0414C34.9589 25.5209 36.1583 26.7201 37.6376 26.7201C39.1171 26.7201 40.3164 25.5208 40.3164 24.0414V22.8938C40.3164 21.9073 39.7826 21.0458 38.9886 20.581Z" fill="#57697D"/>
<path d="M40.3159 35.5856V34.438C40.3159 33.4584 39.7884 32.5937 38.9881 32.1252C38.1563 32.6121 37.1181 32.6124 36.2862 32.1252C35.505 32.5825 34.9584 33.4352 34.9584 34.4686C34.9561 34.6019 34.957 35.5752 34.9589 35.6039C34.9688 37.0748 36.1639 38.2643 37.6372 38.2643C39.1215 38.2643 40.3159 37.0586 40.3159 35.5856Z" fill="#57697D"/>
<path d="M38.9886 26.3517C38.1556 26.8393 37.1216 26.8405 36.2868 26.3517C36.1581 26.4271 36.0371 26.5138 35.9233 26.6088C35.6628 27.1035 35.3665 27.5763 35.0376 28.0238C34.9376 28.4305 34.9589 28.5977 34.9589 29.8122C34.9589 31.2916 36.1583 32.4909 37.6376 32.4909C39.1171 32.4909 40.3164 31.2915 40.3164 29.8122V28.6645C40.3164 27.6779 39.7826 26.8166 38.9886 26.3517Z" fill="#57697D"/>
<path d="M38.9886 20.581C38.1556 21.0686 37.1216 21.0697 36.2868 20.581C36.1581 20.6564 36.0371 20.7431 35.9233 20.838C35.6628 21.3328 35.3665 21.8055 35.0376 22.253C34.9376 22.6599 34.9589 22.8269 34.9589 24.0414C34.9589 25.5209 36.1583 26.7201 37.6376 26.7201C39.1171 26.7201 40.3164 25.5208 40.3164 24.0414V22.8938C40.3164 21.9073 39.7826 21.0458 38.9886 20.581Z" fill="#57697D"/>
<path d="M40.3159 35.5856V34.438C40.3159 33.4584 39.7884 32.5937 38.9881 32.1252C38.1563 32.6121 37.1181 32.6124 36.2862 32.1252C35.505 32.5825 34.9584 33.4352 34.9584 34.4686C34.9561 34.6019 34.957 35.5752 34.9589 35.6039C34.9688 37.0748 36.1639 38.2643 37.6372 38.2643C39.1215 38.2643 40.3159 37.0586 40.3159 35.5856Z" fill="#57697D"/>
<path d="M38.6424 29.8123V28.6646C38.6424 27.4344 37.869 26.8173 37.7968 26.7127C37.2777 26.7436 36.7514 26.6237 36.2868 26.3517C36.1581 26.4271 36.0371 26.5138 35.9233 26.6088C35.6628 27.1034 35.3665 27.5763 35.0376 28.0238C34.9376 28.4306 34.9589 28.5977 34.9589 29.8122C34.9589 30.9862 35.7147 31.9832 36.7659 32.345C37.4936 32.2158 38.6424 31.2737 38.6424 29.8123Z" fill="#57697D"/>
<path d="M37.7993 20.9456L37.7961 20.9419C37.2773 20.9726 36.7512 20.8529 36.2868 20.581C36.1581 20.6564 36.0371 20.7431 35.9233 20.838C35.6628 21.3327 35.3665 21.8055 35.0376 22.253C34.9376 22.6599 34.9589 22.8268 34.9589 24.0414C34.9589 25.2261 35.7283 26.2304 36.7944 26.5839C37.8279 26.2634 38.6424 25.2605 38.6424 24.0414V22.8938C38.6424 22.1254 38.3177 21.4339 37.7993 20.9456Z" fill="#57697D"/>
<path d="M36.905 38.0936C37.9216 37.7114 38.6419 36.7293 38.6419 35.5856C38.6419 34.0736 38.7559 33.5457 37.7946 32.4852C37.2754 32.5157 36.749 32.396 36.2862 32.1251C35.505 32.5824 34.9584 33.4351 34.9584 34.4685C34.9561 34.6018 34.957 35.575 34.9589 35.6038C34.9669 36.7878 35.743 37.7889 36.8137 38.1346L36.905 38.0936Z" fill="#57697D"/>
<path d="M38.9898 20.581C38.5589 20.8333 38.0743 20.9541 37.5912 20.9456C38.1096 21.4339 38.4344 22.1255 38.4344 22.8939V24.0415C38.4344 25.1895 37.7121 26.1685 36.6973 26.5496C38.4461 27.2064 40.3177 25.9113 40.3177 24.0415V22.8939C40.3176 21.9073 39.7839 21.0458 38.9898 20.581Z" fill="#3D5168"/>
<path d="M38.9898 26.3517C38.5589 26.604 38.0743 26.7249 37.5912 26.7164C38.5809 27.6487 38.4344 28.673 38.4344 29.8123C38.4344 30.9602 37.7121 31.9392 36.6973 32.3204C38.446 32.9773 40.3177 31.682 40.3177 29.8123V28.6646C40.3176 27.6779 39.7839 26.8166 38.9898 26.3517Z" fill="#3D5168"/>
<path d="M38.9897 32.1251C38.5594 32.3769 38.0738 32.4975 37.5902 32.4888C38.5686 33.4094 38.4342 34.4073 38.4342 35.5856C38.4342 36.7293 37.7139 37.7114 36.6973 38.0936C38.4489 38.7517 40.3176 37.451 40.3176 35.5856V34.4379C40.3175 33.4583 39.7899 32.5936 38.9897 32.1251Z" fill="#3D5168"/>
<path d="M36.1175 35.6284C35.1614 35.6284 34.9567 35.6284 34.0707 35.6284L30.035 40.5861V44.0559H21.9637V40.5861L17.928 35.6284H15.8812C13.1296 35.6284 10.707 37.8115 10.707 40.875V49.1073H41.2916C41.2916 48.8996 41.2916 40.8871 41.2916 40.8026C41.2917 37.9449 38.9751 35.6284 36.1175 35.6284Z" fill="#EAF6FF"/>
<path d="M36.1175 35.6284C35.1614 35.6284 34.9567 35.6284 34.0707 35.6284L30.035 40.5861V44.0559H21.9637V40.5861L17.928 35.6284H15.8812C13.1296 35.6284 10.707 37.8115 10.707 40.875V49.1073H41.2916C41.2916 48.8996 41.2916 40.8871 41.2916 40.8026C41.2917 37.9449 38.9751 35.6284 36.1175 35.6284Z" fill="#EAF6FF"/>
<path d="M36.1184 35.6284C35.1623 35.6284 34.9576 35.6284 34.0716 35.6284L34.0664 35.6347C36.8079 35.7651 38.9907 38.0287 38.9907 40.8026V49.1073H41.2925C41.2925 48.8996 41.2925 40.8871 41.2925 40.8026C41.2926 37.9449 38.976 35.6284 36.1184 35.6284Z" fill="#D8ECFE"/>
<path d="M21.3027 29.2908V33.0414L25.5672 39.271C25.775 39.5744 26.2228 39.5744 26.4306 39.271L30.6951 33.0414V29.2908H21.3027Z" fill="#FFA78F"/>
<path d="M14.7602 16.2289H12.5706C11.5549 16.913 10.8867 18.0737 10.8867 19.3904V19.4139C10.8867 21.3637 12.3858 23.2233 14.8458 23.2233H17.2203V16.229H14.7602V16.2289Z" fill="#FFB09E"/>
<path d="M39.3662 16.2289H37.1452H34.1289V23.2232H37.0596C39.5281 23.2232 41.0501 21.3924 41.0501 19.4138V19.3903C41.0501 18.0737 40.3819 16.9131 39.3662 16.2289Z" fill="#F89580"/>
<path d="M35.5354 8.22089H14.7598V16.229H14.7572C14.6768 16.9965 14.6952 17.0505 14.6952 21.3887C14.6952 27.786 20.0496 32.5596 25.3514 32.5596C31.0622 32.0371 35.5353 27.2356 35.5353 21.3887C35.5354 20.8051 35.5354 8.78568 35.5354 8.22089Z" fill="#FFCEBF"/>
<path d="M25.5674 39.2709L21.3029 33.0414L17.9277 35.6285L21.9634 40.5862V44.0559V49.1073H25.999H30.0347V40.5862L34.0704 35.6285L30.6952 33.0414L26.4307 39.2709C26.2229 39.5745 25.7751 39.5745 25.5674 39.2709Z" fill="#D8ECFE"/>
<path d="M26.7843 49.1073V38.7552L26.4313 39.2709C26.2235 39.5743 25.7757 39.5743 25.5679 39.2709L25.2148 38.7551V49.1073H25.9996H26.7843Z" fill="#C4E2FF"/>
<path d="M25.9511 30.0755C24.2001 30.0755 22.7754 28.6509 22.7754 26.8998C22.7754 26.4664 23.1267 26.1151 23.5601 26.1151C23.9934 26.1151 24.3447 26.4664 24.3447 26.8998C24.3447 27.7855 25.0653 28.5061 25.951 28.5061C26.8368 28.5061 27.5573 27.7855 27.5573 26.8998C27.5573 26.4664 27.9087 26.1151 28.342 26.1151C28.7754 26.1151 29.1267 26.4664 29.1267 26.8998C29.127 28.6509 27.7023 30.0755 25.9511 30.0755Z" fill="#FFA799"/>
<path d="M31.4468 25.1411C31.0134 25.1411 30.6621 24.7897 30.6621 24.3564V22.2831C30.6621 21.8497 31.0134 21.4984 31.4468 21.4984H32.2959C32.7293 21.4984 33.0806 21.8497 33.0806 22.2831C33.0806 22.7165 32.7293 23.0678 32.2959 23.0678H32.2316V24.3563C32.2315 24.7897 31.8801 25.1411 31.4468 25.1411Z" fill="#3D5168"/>
<path d="M20.456 25.1411C20.0226 25.1411 19.6713 24.7898 19.6713 24.3564V23.0679H19.6069C19.1736 23.0679 18.8223 22.7166 18.8223 22.2832C18.8223 21.8498 19.1736 21.4985 19.6069 21.4985H20.4561C20.8895 21.4985 21.2408 21.8498 21.2408 22.2832V24.3565C21.2408 24.7898 20.8894 25.1411 20.456 25.1411Z" fill="#3D5168"/>
<path d="M49.4001 49.1015V41.5693C49.4001 41.0017 48.9476 40.5381 48.3802 40.5233C44.1959 40.4144 28.4508 40.4121 26 46.4144V49.1014H49.4001V49.1015Z" fill="#FFF3BE"/>
<path d="M49.3132 51.7883H26V46.4143H49.3132C50.7971 46.4143 52 47.6172 52 49.1011V49.1013C52 50.5854 50.7971 51.7883 49.3132 51.7883Z" fill="#FD8087"/>
<path d="M35.1185 10.6949V21.3886C35.1185 27.2359 30.6449 32.0375 24.9336 32.5597C31.6635 33.1616 37.211 27.8906 37.211 21.3886C37.211 20.217 37.211 11.7667 37.211 10.6949C36.2207 10.6949 36.1077 10.6949 35.1185 10.6949Z" fill="#FFB09E"/>
<path d="M25.2142 0.261841C19.181 0.261841 12.5703 5.76247 12.5703 13.5794V16.229H19.1651C22.9396 16.229 25.9995 13.1691 25.9995 9.39454C25.9995 13.1691 29.0594 16.229 32.834 16.229H37.4828V13.5794C37.4827 6.70832 32.244 0.847653 25.2142 0.261841Z" fill="#57697D"/>
<path d="M24.7949 0.261816C31.8248 0.847629 37.0634 6.70829 37.0634 13.5794V16.229H39.3652V13.5794C39.3652 5.84664 32.7837 -0.413473 24.7949 0.261816Z" fill="#3D5168"/>
<path d="M30.6966 33.0414L29.9045 34.1986L31.77 35.6285L27.7344 40.5863V49.1073H30.0362V40.5863L34.0718 35.6285L30.6966 33.0414Z" fill="#C4E2FF"/>
<path d="M13.9397 36.1735C10.8607 24.6821 11.1211 25.3794 10.8028 25.1176L9.93148 25.3511C9.44956 25.4802 9.16356 25.9756 9.29275 26.4575L12.0331 36.6845L13.9397 36.1735Z" fill="#5DE1C4"/>
<path d="M13.6197 36.6516L15.4045 36.1735L12.566 25.5803C12.4369 25.0984 11.9415 24.8124 11.4596 24.9416L10.4766 25.205C10.6917 25.4399 10.4612 24.754 13.5211 36.1736L13.6197 36.6516Z" fill="#0ED2B3"/>
<path d="M15.8685 38.9197V34.2537C15.8685 33.098 14.9316 32.1611 13.7759 32.1611H10.784C9.62832 32.1611 8.69141 33.098 8.69141 34.2537V38.9197C8.69141 40.0754 9.62832 41.0123 10.784 41.0123H13.7759C14.9316 41.0123 15.8685 40.0754 15.8685 38.9197Z" fill="#FFCEBF"/>
<path d="M15.452 32.1613H13.3594C14.5151 32.1613 15.452 33.0982 15.452 34.2538V38.9198C15.452 40.0755 14.5151 41.0124 13.3594 41.0124H15.452C16.6076 41.0124 17.5446 40.0755 17.5446 38.9198V34.2538C17.5446 33.0982 16.6076 32.1613 15.452 32.1613Z" fill="#FFB09E"/>
<path d="M46.2876 40.5232C45.3349 40.4984 45.0175 40.5006 46.5607 40.499C40.8165 40.4901 28.1748 41.0881 26 46.4143V46.4699L47.3076 49.1014V41.5692C47.3075 41.0015 46.855 40.538 46.2876 40.5232Z" fill="#FFE177"/>
<path d="M48.3798 40.5233C47.7244 40.5062 43.5703 40.4581 46.078 40.5233C46.6454 40.538 47.0979 41.0016 47.0979 41.5693V49.1014H49.3997V41.5693C49.3997 41.0016 48.9472 40.5381 48.3798 40.5233Z" fill="#FFD15B"/>
<path d="M47.2206 51.7883C48.7039 51.7883 49.9074 50.586 49.9074 49.1013C49.9074 47.6173 48.7045 46.4144 47.2206 46.4144H26V51.7883H49.3134H47.2206Z" fill="#FE646F"/>
<path d="M49.3135 46.4143H47.0117C48.495 46.4143 49.6986 47.6166 49.6986 49.1013C49.6986 50.5853 48.4956 51.7882 47.0117 51.7882H49.3135C50.7975 51.7882 52.0004 50.5853 52.0004 49.1013V49.101C52.0004 47.6173 50.7975 46.4143 49.3135 46.4143Z" fill="#FD4755"/>
<path d="M2.59961 49.1072V41.575C2.59961 41.0074 3.05207 40.5439 3.6195 40.529C7.80377 40.4202 23.5489 40.4178 25.9997 46.4202L2.59961 49.1072Z" fill="#FFF0AD"/>
<path d="M26 51.7883H2.68684C1.20291 51.7883 0 50.5854 0 49.1015V49.1013C0 47.6173 1.20291 46.4144 2.68684 46.4144H26V51.7883Z" fill="#FD8087"/>
<path d="M32.1444 27.0214H33.0997C33.5423 27.0214 33.9283 26.6803 33.9416 26.2378C33.9553 25.78 33.5883 25.4046 33.1336 25.4046H32.1444C31.6979 25.4046 31.3359 25.7666 31.3359 26.213C31.3359 26.6594 31.6979 27.0214 32.1444 27.0214Z" fill="#FE8F83"/>
<path d="M19.7254 27.0214H18.7701C18.3275 27.0214 17.9414 26.6803 17.9281 26.2378C17.9144 25.78 18.2814 25.4046 18.7361 25.4046H19.7254C20.1718 25.4046 20.5338 25.7666 20.5338 26.213C20.5338 26.6594 20.1718 27.0214 19.7254 27.0214Z" fill="#FE8F83"/>
</g>
<defs>
<clipPath id="clip0_280_5582">
<rect width="52" height="52" fill="white"/>
</clipPath>
</defs>
</svg>
