<svg width="64" height="62" viewBox="0 0 64 62" fill="none" xmlns="http://www.w3.org/2000/svg">
<path d="M48.0372 33.0945L47.6969 36.1561L47.4675 38.2186H18.5925L18.363 36.1561L18.0227 33.0945C17.7202 30.3698 18.1288 27.6132 19.2086 25.0933C20.1598 22.8726 20.5919 20.4641 20.4719 18.0512L20.2927 14.4831C20.2066 12.7569 20.4722 11.0313 21.0734 9.41093C21.6746 7.79058 22.5989 6.30934 23.7901 5.05717C24.9814 3.80499 26.4147 2.80801 28.0031 2.12677C29.5914 1.44553 31.3017 1.09424 33.03 1.09424C34.7583 1.09424 36.4685 1.44553 38.0569 2.12677C39.6452 2.80801 41.0786 3.80499 42.2698 5.05717C43.461 6.30934 44.3853 7.79058 44.9865 9.41093C45.5877 11.0313 45.8533 12.7569 45.7672 14.4831L45.588 18.0512C45.468 20.4641 45.9001 22.8726 46.8513 25.0933C47.9315 27.6131 48.3401 30.3698 48.0372 33.0945V33.0945Z" fill="#8F4D2E"/>
<path d="M48.0382 33.0947L47.6979 36.1562H36.1247V24.8125L38.1872 20.6875V12.4375C38.1859 9.95145 37.3687 7.53454 35.8611 5.55775C34.3536 3.58097 32.2389 2.15356 29.8418 1.49465C31.7786 0.997508 33.805 0.962223 35.7579 1.39164C37.7108 1.82105 39.5355 2.70316 41.0851 3.9669C42.6347 5.23064 43.8658 6.84067 44.6792 8.6673C45.4926 10.4939 45.8656 12.4861 45.7682 14.4832L45.589 18.0514C45.469 20.4643 45.9011 22.8728 46.8523 25.0935C47.9325 27.6132 48.3411 30.37 48.0382 33.0947V33.0947Z" fill="#82462A"/>
<path d="M38.6 34.0938C38.4104 34.0939 38.2226 34.0566 38.0474 33.9841C37.8722 33.9115 37.713 33.8052 37.5789 33.6711C37.4448 33.537 37.3385 33.3778 37.2659 33.2026C37.1934 33.0274 37.1561 32.8396 37.1562 32.65V25.8438H28.9062V32.65C28.9064 32.8396 28.8691 33.0274 28.7966 33.2026C28.724 33.3778 28.6177 33.537 28.4836 33.6711C28.3495 33.8052 28.1903 33.9115 28.0151 33.9841C27.8399 34.0566 27.6521 34.0939 27.4625 34.0938H25.8125V40.2812H40.25V34.0938H38.6Z" fill="#FEC9A3"/>
<path d="M33.6531 31C34.93 30.986 36.1646 30.5404 37.1562 29.7358V25.8438H28.9062V29.7354C29.8978 30.5402 31.1324 30.9859 32.4094 31H33.6531Z" fill="#FEB784"/>
<path d="M42.3125 14.5V19.6562C42.3125 22.1178 41.3347 24.4785 39.5941 26.2191C37.8535 27.9597 35.4928 28.9375 33.0312 28.9375C30.5697 28.9375 28.209 27.9597 26.4684 26.2191C24.7278 24.4785 23.75 22.1178 23.75 19.6562V14.5C25.7777 13.1488 27.4174 11.2914 28.5066 9.11172L28.9062 8.3125L29.4915 8.80105C32.0538 10.9362 35.0075 12.5518 38.1875 13.5577C39.5343 13.9846 40.914 14.2997 42.3125 14.5V14.5Z" fill="#FEC9A3"/>
<path d="M42.3128 14.4999V19.6562C42.3123 21.8104 41.5629 23.8975 40.1928 25.5599C38.8227 27.2223 36.9172 28.3566 34.8027 28.7686C35.8764 27.7146 36.7289 26.457 37.3101 25.0693C37.8914 23.6817 38.1898 22.1919 38.1878 20.6874V13.5576C39.5346 13.9845 40.9143 14.2997 42.3128 14.4999V14.4999Z" fill="#FEC093"/>
<path d="M28.3906 18.625C28.0847 18.625 27.7856 18.5343 27.5312 18.3643C27.2768 18.1943 27.0786 17.9527 26.9615 17.6701C26.8444 17.3874 26.8138 17.0764 26.8735 16.7763C26.9332 16.4763 27.0805 16.2007 27.2968 15.9843C27.5132 15.768 27.7888 15.6207 28.0888 15.561C28.3889 15.5013 28.6999 15.5319 28.9826 15.649C29.2652 15.7661 29.5068 15.9643 29.6768 16.2187C29.8468 16.4731 29.9375 16.7722 29.9375 17.0781C29.9371 17.4882 29.7739 17.8814 29.4839 18.1714C29.1939 18.4614 28.8007 18.6246 28.3906 18.625V18.625Z" fill="#7A432A"/>
<path d="M37.6719 18.625C37.3659 18.625 37.0669 18.5343 36.8125 18.3643C36.5581 18.1943 36.3598 17.9527 36.2427 17.6701C36.1257 17.3874 36.095 17.0764 36.1547 16.7763C36.2144 16.4763 36.3617 16.2007 36.5781 15.9843C36.7944 15.768 37.07 15.6207 37.3701 15.561C37.6702 15.5013 37.9812 15.5319 38.2638 15.649C38.5465 15.7661 38.7881 15.9643 38.9581 16.2187C39.128 16.4731 39.2187 16.7722 39.2187 17.0781C39.2183 17.4882 39.0552 17.8814 38.7652 18.1714C38.4752 18.4614 38.082 18.6246 37.6719 18.625Z" fill="#7A432A"/>
<path d="M33.0312 23.7812C32.211 23.7803 31.4246 23.4541 30.8447 22.8741C30.2647 22.2941 29.9384 21.5077 29.9375 20.6875H32C32 20.961 32.1086 21.2233 32.302 21.4167C32.4954 21.6101 32.7577 21.7188 33.0312 21.7188C33.3048 21.7188 33.5671 21.6101 33.7605 21.4167C33.9539 21.2233 34.0625 20.961 34.0625 20.6875H36.125C36.1241 21.5077 35.7978 22.2941 35.2178 22.8741C34.6379 23.4541 33.8515 23.7803 33.0312 23.7812V23.7812Z" fill="#F7A468"/>
<path d="M27.875 38.2188H38.1875V45.4375H27.875V38.2188Z" fill="#E0E0DE"/>
<path d="M54.0383 60.8637C53.3067 60.9856 52.5556 60.8437 51.9189 60.4633C51.2822 60.083 50.8012 59.4889 50.5617 58.787L43.7503 46.0086C44.1839 47.3051 44.2794 48.691 44.0277 50.0347C43.7759 51.3785 43.1853 52.6358 42.3117 53.6875V61.9375H23.7492V53.6875C22.8629 52.6237 22.2662 51.3491 22.0169 49.9872C21.7676 48.6252 21.8741 47.2219 22.3261 45.9132L15.4038 58.787C15.1381 59.5684 14.5745 60.2131 13.8357 60.5808C13.0969 60.9485 12.2427 61.0095 11.4591 60.7504C10.6756 60.4913 10.0261 59.9332 9.65218 59.1975C9.27822 58.4618 9.21005 57.6082 9.4625 56.8225L17.0345 37.9751C17.4946 36.8289 18.2873 35.8466 19.3106 35.1548C20.3338 34.4631 21.5408 34.0935 22.7759 34.0938H26.8429L33.0304 45.4375L39.2179 34.0938H43.2695C44.5081 34.0946 45.718 34.4669 46.7429 35.1625C47.7677 35.858 48.5605 36.845 49.0187 37.9957L56.5043 56.8225C56.641 57.2502 56.6841 57.7024 56.6307 58.1482C56.5773 58.5941 56.4286 59.0232 56.1947 59.4066C55.9608 59.7899 55.6471 60.1184 55.2751 60.3698C54.903 60.6212 54.4812 60.7897 54.0383 60.8637V60.8637Z" fill="#EC8C8C"/>
<path d="M8.56883 57.1693L9.31262 47.5H15.5001V57.4355C15.5001 58.356 15.1344 59.2388 14.4835 59.8897C13.8326 60.5406 12.9498 60.9062 12.0293 60.9062C11.5511 60.9063 11.078 60.8074 10.6398 60.616C10.2016 60.4245 9.80765 60.1446 9.48273 59.7937C9.15781 59.4428 8.9089 59.0286 8.75164 58.5769C8.59437 58.1253 8.53213 57.6461 8.56883 57.1693V57.1693Z" fill="#F59898"/>
<path d="M11.7386 32.4565C11.4472 32.5293 11.1759 32.6667 10.9446 32.8584C10.7134 33.0502 10.5282 33.2914 10.4026 33.5644C10.2771 33.8373 10.2145 34.1349 10.2194 34.4353C10.2243 34.7356 10.2965 35.0311 10.4309 35.2997L11.375 37.1873H7.67939C6.71882 37.1873 5.77145 36.9637 4.91229 36.5341L3.88464 36.0203C3.69598 35.926 3.48634 35.8815 3.27562 35.8909C3.0649 35.9004 2.86011 35.9636 2.68068 36.0745C2.50125 36.1854 2.35314 36.3403 2.25042 36.5245C2.14769 36.7088 2.09376 36.9162 2.09375 37.1271V40.0376C2.09375 40.4206 2.20042 40.7961 2.4018 41.1219C2.60318 41.4477 2.89132 41.711 3.23393 41.8823L4.91229 42.7216C5.77145 43.1512 6.71882 43.3748 7.67939 43.3748H15.5V37.1873L14.0878 33.657C13.9076 33.2067 13.5703 32.8369 13.1383 32.6162C12.7064 32.3955 12.2092 32.3387 11.7386 32.4565V32.4565Z" fill="#FEC9A3"/>
<path d="M9.3125 43.375H15.5V47.5H9.3125V43.375Z" fill="#E0E0DE"/>
<path d="M54.0399 60.8635C53.3083 60.9854 52.5573 60.8435 51.9205 60.4632C51.2838 60.0828 50.8028 59.4888 50.5633 58.7869L43.7519 46.0084C44.1856 47.305 44.2811 48.6908 44.0293 50.0346C43.7776 51.3784 43.1869 52.6357 42.3133 53.6873V61.9373H24.0898C32.6015 56.3789 39.7829 49.3251 45.8105 34.6401C47.2761 35.2986 48.4275 36.5022 49.0203 37.9956L56.5059 56.8223C56.6426 57.2501 56.6858 57.7022 56.6323 58.1481C56.5789 58.5939 56.4302 59.0231 56.1963 59.4064C55.9624 59.7897 55.6488 60.1182 55.2767 60.3697C54.9046 60.6211 54.4828 60.7895 54.0399 60.8635V60.8635Z" fill="#E07F7F"/>
<path d="M47.4688 57.8125L37.1562 55.75V41.3125L47.4688 43.375V57.8125Z" fill="#A36548"/>
<path d="M51.5938 57.8125L61.9062 55.75V41.3125L51.5938 43.375V57.8125Z" fill="#8F4D2E"/>
<path d="M47.4688 43.375H51.5938V57.8125H47.4688V43.375Z" fill="#95573A"/>
<path d="M49.5312 43.375C49.5312 42.5105 49.2246 41.674 48.6658 41.0144C48.107 40.3548 47.3324 39.9147 46.4797 39.7726L37.1562 38.2188V41.3125L47.4688 43.375H49.5312C49.5313 42.5105 49.8379 41.674 50.3967 41.0144C50.9555 40.3548 51.7301 39.9147 52.5828 39.7726L61.9062 38.2188V41.3125L51.5938 43.375H49.5312Z" fill="#D4BD81"/>
<path d="M60.0133 57.7144L55.8883 58.402C55.7405 58.4266 55.5892 58.4187 55.4448 58.3789C55.3004 58.3392 55.1665 58.2684 55.0522 58.1716C54.9379 58.0748 54.8461 57.9543 54.7831 57.8184C54.7201 57.6825 54.6875 57.5345 54.6875 57.3848V53.5517C54.6875 53.234 54.8002 52.9266 55.0055 52.6841C55.2109 52.4416 55.4956 52.2799 55.809 52.2276L59.3116 51.6438C59.504 51.6117 59.701 51.6219 59.889 51.6737C60.077 51.7254 60.2514 51.8175 60.4002 51.9436C60.549 52.0696 60.6686 52.2265 60.7506 52.4035C60.8326 52.5804 60.875 52.7731 60.875 52.968V56.6972C60.875 56.9413 60.7884 57.1775 60.6306 57.3637C60.4728 57.55 60.2541 57.6743 60.0133 57.7144Z" fill="#FEC9A3"/>
</svg>
