<svg width="52" height="52" viewBox="0 0 52 52" fill="none" xmlns="http://www.w3.org/2000/svg">
<g clip-path="url(#clip0_280_5358)">
<path d="M25.5596 41.4238C28.4802 41.4238 30.8478 39.0562 30.8478 36.1357C30.8478 33.2151 28.4802 30.8475 25.5596 30.8475C22.6391 30.8475 20.2715 33.2151 20.2715 36.1357C20.2715 39.0562 22.6391 41.4238 25.5596 41.4238Z" fill="#FDD7AD"/>
<path d="M34.3732 45.8306V51.1187C34.3732 51.6055 33.9786 52.0001 33.4919 52.0001H17.6274C17.1407 52.0001 16.7461 51.6055 16.7461 51.1187V45.8306C16.7461 43.3968 18.7191 41.4238 21.1529 41.4238H29.9664C32.4002 41.4238 34.3732 43.3968 34.3732 45.8306Z" fill="#EC8C8C"/>
<path d="M22.0342 48.4746V52H20.2715V48.4746C20.2715 47.9879 20.6661 47.5933 21.1528 47.5933C21.6396 47.5933 22.0342 47.9879 22.0342 48.4746Z" fill="#E37A7A"/>
<path d="M30.8467 48.4746V52H29.084V48.4746C29.084 47.9879 29.4786 47.5933 29.9653 47.5933C30.4521 47.5933 30.8467 47.9879 30.8467 48.4746Z" fill="#E37A7A"/>
<path d="M25.9481 15.7208L28.0096 19.6252L32.5556 20.2421C32.7253 20.265 32.8663 20.3841 32.9174 20.5475C32.9684 20.711 32.9201 20.8891 32.7936 21.0045L29.5246 23.9826L30.3029 28.2237C30.3329 28.3874 30.2681 28.554 30.1354 28.6544C30.0027 28.7549 29.8248 28.772 29.6753 28.6987L25.5585 26.676L21.4417 28.6987C21.2923 28.772 21.1144 28.7549 20.9817 28.6544C20.849 28.554 20.7842 28.3874 20.8142 28.2237L21.5924 23.9826L18.3235 21.0045C18.197 20.8891 18.1487 20.711 18.1997 20.5475C18.2507 20.3841 18.3918 20.265 18.5615 20.2421L23.1075 19.6252L25.169 15.7208C25.2453 15.5764 25.3952 15.4861 25.5585 15.4861C25.7218 15.4861 25.8718 15.5764 25.9481 15.7208Z" fill="#F0C419"/>
<path d="M34.3037 35.9594C33.9204 35.9601 33.5807 35.7131 33.4632 35.3483C33.3457 34.9836 33.4774 34.5847 33.7889 34.3615C39.6596 30.148 41.3894 22.1754 37.7929 15.9077L34.5002 12.0077C30.2842 8.55134 24.4536 7.83471 19.5262 10.1673C14.5987 12.4998 11.4571 17.4637 11.458 22.9154C11.4558 24.3653 11.68 25.8066 12.1226 27.1873L14.534 31.6937C15.3393 32.7079 16.281 33.606 17.3323 34.3624C17.7016 34.6545 17.7761 35.1852 17.5016 35.5677C17.227 35.9502 16.7003 36.0493 16.3055 35.7929C15.0989 34.9252 14.0209 33.8915 13.1035 32.7222C13.0717 32.682 13.0436 32.6389 13.0198 32.5935L10.5344 27.9497C10.5103 27.9042 10.4902 27.8567 10.4744 27.8078C9.95725 26.2285 9.69427 24.5771 9.69532 22.9154C9.69447 16.7664 13.2469 11.1708 18.8119 8.55536C24.377 5.93996 30.9521 6.77592 35.6856 10.7007C35.7256 10.7337 35.7624 10.7703 35.7958 10.8099L39.189 14.8289C39.2217 14.8676 39.2512 14.9088 39.2771 14.9523C43.381 22.0118 41.4489 31.0339 34.814 35.7937C34.6654 35.9011 34.4869 35.9591 34.3037 35.9594Z" fill="#E57E25"/>
<path d="M36.8244 42.7282C36.4272 42.7289 36.0786 42.4637 35.9732 42.0807C35.8678 41.6977 36.0316 41.2916 36.3732 41.0889C40.207 38.8023 43.2249 35.3682 44.9999 31.2723L46.4418 26.3156C47.4301 20.1929 45.6848 13.9446 41.6668 9.22028C37.6488 4.49591 31.7618 1.77023 25.5598 1.76276C20.2214 1.75308 15.0788 3.77257 11.1734 7.41225L7.8384 11.3784C5.59246 14.8064 4.39966 18.8171 4.40728 22.9153C4.42568 30.3561 8.3379 37.2443 14.7191 41.0712C15.0725 41.2629 15.2514 41.6694 15.1541 42.0594C15.0567 42.4494 14.7078 42.7242 14.3058 42.7273C14.1445 42.7275 13.9861 42.6849 13.8466 42.6039C6.91607 38.4617 2.66454 30.9893 2.64457 22.9153C2.63652 18.4545 3.9407 14.0899 6.39474 10.3648C6.41323 10.336 6.43385 10.3086 6.45643 10.2828L9.85847 6.2374C9.88071 6.21017 9.90487 6.18454 9.93074 6.16073C17.1071 -0.520286 27.7379 -1.8976 36.3799 2.734C45.0219 7.36561 49.7615 16.9806 48.1719 26.6558C48.1665 26.69 48.1588 26.7239 48.149 26.7571L46.6771 31.817C46.6677 31.8514 46.6556 31.885 46.641 31.9175C44.7212 36.377 41.4432 40.117 37.2739 42.6048C37.1379 42.6855 36.9826 42.7281 36.8244 42.7282Z" fill="#F29C1F"/>
<path d="M8.81399 11.4578C10.2743 11.4578 11.4581 10.274 11.4581 8.81368C11.4581 7.35341 10.2743 6.16962 8.81399 6.16962C7.35371 6.16962 6.16992 7.35341 6.16992 8.81368C6.16992 10.274 7.35371 11.4578 8.81399 11.4578Z" fill="#F3D55B"/>
<path d="M37.0171 15.8645C38.4774 15.8645 39.6612 14.6807 39.6612 13.2204C39.6612 11.7601 38.4774 10.5764 37.0171 10.5764C35.5568 10.5764 34.373 11.7601 34.373 13.2204C34.373 14.6807 35.5568 15.8645 37.0171 15.8645Z" fill="#F3D55B"/>
<path d="M12.3394 32.6102C13.7997 32.6102 14.9834 31.4264 14.9834 29.9661C14.9834 28.5059 13.7997 27.3221 12.3394 27.3221C10.8791 27.3221 9.69531 28.5059 9.69531 29.9661C9.69531 31.4264 10.8791 32.6102 12.3394 32.6102Z" fill="#F3D55B"/>
<path d="M46.7124 31.7289C48.1727 31.7289 49.3565 30.5451 49.3565 29.0849C49.3565 27.6246 48.1727 26.4408 46.7124 26.4408C45.2521 26.4408 44.0684 27.6246 44.0684 29.0849C44.0684 30.5451 45.2521 31.7289 46.7124 31.7289Z" fill="#F3D55B"/>
</g>
<defs>
<clipPath id="clip0_280_5358">
<rect width="52" height="52" fill="white"/>
</clipPath>
</defs>
</svg>
