<svg width="54" height="54" viewBox="0 0 54 54" fill="none" xmlns="http://www.w3.org/2000/svg">
<path d="M26.9998 51.0001H50.9999V33.0748L18.0371 24.1121L26.9998 51.0001Z" fill="#A6CFE7"/>
<path d="M27.0001 51.0001H3V33.0748L27.0001 24.1121V51.0001Z" fill="#BAE9FF"/>
<path d="M51 3H26.9999L18.5605 18.0373L26.9999 33.0748H51V3Z" fill="#E37A7A"/>
<path d="M3 3H27.0001V33.0748H3V3Z" fill="#EC8C8C"/>
<path d="M22.4688 10.1892V25.8855L26.9999 23.2694L29.9874 18.0373L26.9999 12.8052L22.4688 10.1892Z" fill="white"/>
<path d="M27 12.805V23.2692L36.0623 18.0371L27 12.805Z" fill="#E3F6FF"/>
<path d="M45.0249 39.0494H26.9999L18.5605 42.0369L26.9999 45.0246H45.0249V39.0494Z" fill="#5A7BA0"/>
<path d="M17.4013 39.0494L12.9199 42.0369L17.4013 45.0246H27.0013V39.0494H17.4013Z" fill="#7397B8"/>
<path d="M8.97266 39.0494H17.3976V45.0245H8.97266V39.0494Z" fill="white"/>
</svg>
