<svg width="20" height="20" viewBox="0 0 20 20" fill="none" xmlns="http://www.w3.org/2000/svg">
<g clip-path="url(#clip0_280_5290)">
<path d="M19.7966 2.23764C19.6688 2.10665 19.4933 2.03322 19.3104 2.03419H0.689665C0.506702 2.03322 0.331203 2.10665 0.203458 2.23764C0.072472 2.36538 -0.000963916 2.54088 9.55643e-06 2.72384V17.2066C-0.000963916 17.3896 0.072472 17.5651 0.203458 17.6928C0.331203 17.8238 0.506702 17.8972 0.689665 17.8963H18.9655C19.5369 17.8963 20 17.4331 20 16.8618V2.72384C20.001 2.54088 19.9275 2.36538 19.7966 2.23764Z" fill="#F3D55B"/>
<path d="M19.9995 2.72365V16.8616C19.9995 17.1359 19.8904 17.3989 19.6961 17.5926L18.2754 16.1719V3.75813L19.7961 2.23744C19.9271 2.36519 20.0005 2.54069 19.9995 2.72365Z" fill="#F0C419"/>
<path d="M1.72415 3.75813V16.1719L0.203458 17.6926C0.072472 17.5649 -0.000963916 17.3894 9.55643e-06 17.2064V2.72365C-0.000963916 2.54069 0.072472 2.36519 0.203458 2.23744L1.72415 3.75813Z" fill="#F0C419"/>
<path d="M19.6962 17.5927C19.5026 17.787 19.2395 17.8962 18.9652 17.8962H0.689332C0.50637 17.8971 0.33087 17.8237 0.203125 17.6927L1.72381 16.172H18.2755L19.6962 17.5927Z" fill="#F29C1F"/>
<path d="M1.72461 3.7581H18.2763V16.1719H1.72461V3.7581Z" fill="#ECF0F1"/>
<path d="M18.2763 3.7581C18.2763 3.7581 1.72461 3.7581 1.72461 16.1719V3.7581H18.2763Z" fill="white"/>
<path d="M12.4146 6.17213H7.58701C7.39657 6.17213 7.24219 6.01774 7.24219 5.8273C7.24219 5.63685 7.39657 5.48247 7.58701 5.48247H12.4146C12.605 5.48247 12.7594 5.63685 12.7594 5.8273C12.7594 6.01774 12.605 6.17213 12.4146 6.17213Z" fill="#BDC3C7"/>
<path d="M8.96538 13.7582H4.1378C3.94735 13.7582 3.79297 13.6038 3.79297 13.4134C3.79297 13.2229 3.94735 13.0685 4.1378 13.0685H8.96538C9.15583 13.0685 9.31021 13.2229 9.31021 13.4134C9.31021 13.6038 9.15583 13.7582 8.96538 13.7582Z" fill="#95A5A5"/>
<path d="M13.4484 7.89649H6.55186C6.36142 7.89649 6.20703 7.74211 6.20703 7.55166C6.20703 7.36122 6.36142 7.20683 6.55186 7.20683H13.4484C13.6388 7.20683 13.7932 7.36122 13.7932 7.55166C13.7932 7.74211 13.6388 7.89649 13.4484 7.89649Z" fill="#BDC3C7"/>
<path d="M12.0703 14.9306L12.0703 19.4065C12.0695 19.5266 12.1312 19.6385 12.2333 19.7019C12.3354 19.7652 12.463 19.7709 12.5703 19.7168L13.4669 19.2651C13.5647 19.2169 13.6794 19.2169 13.7772 19.2651L14.6738 19.7168C14.7811 19.7709 14.9087 19.7652 15.0108 19.7019C15.1129 19.6385 15.1746 19.5266 15.1738 19.4065L15.1738 14.9306H12.0703Z" fill="#FF5364"/>
<path d="M8.96538 12.3789C8.12102 12.379 7.29094 12.1611 6.55538 11.7465C5.81859 12.1649 4.98506 12.3829 4.1378 12.3789C3.94735 12.3789 3.79297 12.2246 3.79297 12.0341C3.79297 11.8437 3.94735 11.6893 4.1378 11.6893C4.75587 11.692 5.36687 11.5576 5.92676 11.2958C5.56887 11.0215 5.33996 10.6117 5.294 10.1631C5.294 9.95619 5.38469 9.2755 6.55159 9.2755C7.71849 9.2755 7.80918 9.95481 7.80918 10.1631C7.76345 10.6122 7.5347 11.0227 7.17676 11.2979C7.73686 11.5585 8.34762 11.6922 8.96538 11.6893C9.15583 11.6893 9.31021 11.8437 9.31021 12.0341C9.31021 12.2246 9.15583 12.3789 8.96538 12.3789ZM6.55159 9.96515C6.28952 9.96515 5.98366 10.0169 5.98366 10.1631C5.98366 10.3093 6.13849 10.6038 6.54883 10.9196C6.91573 10.6389 7.11952 10.3455 7.11952 10.1631C7.11952 10.0169 6.81366 9.96515 6.55159 9.96515Z" fill="#95A5A5"/>
<path d="M16.8955 12.5514C16.8955 12.949 16.1531 13.1955 16.0096 13.5414C15.861 13.8996 16.2058 14.5979 15.9358 14.8679C15.6658 15.1379 14.9676 14.7931 14.6096 14.9414C14.2638 15.0848 14.0172 15.8272 13.6196 15.8272C13.222 15.8272 12.9755 15.0848 12.6296 14.9414C12.2713 14.7928 11.5731 15.1376 11.3031 14.8676C11.0331 14.5976 11.3779 13.8993 11.2296 13.5414C11.0862 13.1955 10.3438 12.949 10.3438 12.5514C10.3438 12.1538 11.0862 11.9072 11.2296 11.5614C11.3782 11.2031 11.0334 10.5048 11.3034 10.2348C11.5734 9.96481 12.2717 10.3096 12.6296 10.1614C12.9744 10.0179 13.222 9.2755 13.6196 9.2755C14.0172 9.2755 14.2638 10.0179 14.6096 10.1614C14.9679 10.31 15.6662 9.96515 15.9362 10.2352C16.2062 10.5052 15.8613 11.2034 16.0096 11.5614C16.1531 11.9072 16.8955 12.1538 16.8955 12.5514Z" fill="#FB7B76"/>
<path d="M13.621 13.7585C14.2875 13.7585 14.8279 13.2181 14.8279 12.5516C14.8279 11.885 14.2875 11.3447 13.621 11.3447C12.9544 11.3447 12.4141 11.885 12.4141 12.5516C12.4141 13.2181 12.9544 13.7585 13.621 13.7585Z" fill="#DF4D60"/>
</g>
<defs>
<clipPath id="clip0_280_5290">
<rect width="20" height="20" fill="white"/>
</clipPath>
</defs>
</svg>
