<svg width="52" height="45" viewBox="0 0 52 45" fill="none" xmlns="http://www.w3.org/2000/svg">
<path d="M41.2343 0H4.5703C2.0413 0 0 2.00989 0 4.49997V28.4998C0 30.9897 2.0413 32.9998 4.5703 32.9998H6.09374V40.4998C6.09374 41.0998 6.45936 41.6398 7.03827 41.8797C7.58671 42.1198 8.25712 41.9997 8.68348 41.5497L17.4992 32.9998H41.2343C43.7633 32.9998 45.8046 30.9897 45.8046 28.4998V4.49997C45.8046 2.00989 43.7633 0 41.2343 0Z" fill="#EE9999"/>
<path d="M45.8046 4.49997V28.4998C45.8046 30.9897 43.7633 32.9998 41.2343 32.9998H22.9531V0H41.2343C43.7633 0 45.8046 2.00989 45.8046 4.49997Z" fill="#E37A7A"/>
<path d="M47.3281 18H38.1875H29.0469C26.5267 18 24.4766 20.0186 24.4766 22.5V34.4999C24.4766 36.9813 26.5267 38.9999 29.0469 38.9999H37.5567L38.1875 39.621L43.2041 44.5604C43.6439 44.9934 44.303 45.1163 44.8645 44.8856C45.4342 44.6542 45.8047 44.1063 45.8047 43.4999V39H47.3282C49.8484 39 52 36.9814 52 34.5V22.5001C51.9999 20.0186 49.8482 18 47.3281 18Z" fill="#7ED96C"/>
<path d="M44.8644 44.8855C45.4342 44.6541 45.8047 44.1062 45.8047 43.4998V38.9999H47.3281C49.8483 38.9999 52 36.9813 52 34.4999V22.5C52 20.0186 49.8483 18 47.3281 18H38.1875V39.621L43.2042 44.5604C43.6439 44.9934 44.303 45.1163 44.8644 44.8855Z" fill="#48B348"/>
<path d="M19.9062 24H10.7656C9.92357 24 9.24219 23.3291 9.24219 22.5C9.24219 21.6709 9.92357 21 10.7656 21H19.9062C20.7483 21 21.4297 21.6709 21.4297 22.5C21.4297 23.3291 20.7483 24 19.9062 24Z" fill="#F9F4F3"/>
<path d="M24.4765 16.5C24.4765 17.3399 23.8063 18 22.9531 18H10.7656C9.9124 18 9.24219 17.3399 9.24219 16.5C9.24219 15.6599 9.9124 15 10.7656 15H22.9531C23.8063 15 24.4765 15.6599 24.4765 16.5Z" fill="#F9F4F3"/>
<path d="M36.664 10.5C36.664 11.3399 35.9938 12 35.1406 12H10.7656C9.9124 12 9.24219 11.3399 9.24219 10.5C9.24219 9.65989 9.9124 9 10.7656 9H35.1406C35.9938 9 36.664 9.65989 36.664 10.5Z" fill="#F9F4F3"/>
<path d="M42.3115 25.9393C41.7164 25.3534 40.7523 25.3534 40.1572 25.9393L38.1875 27.8787L36.6641 29.3787L35.456 28.1892C34.8609 27.6033 33.8968 27.6033 33.3018 28.1892C32.7067 28.7751 32.7067 29.7244 33.3018 30.3103L35.5869 32.5603C35.8845 32.8533 36.2743 32.9998 36.664 32.9998C37.0537 32.9998 37.4436 32.8533 37.741 32.5603L38.1875 32.1209L42.3115 28.0604C42.9066 27.4744 42.9066 26.5252 42.3115 25.9393Z" fill="#F9F4F3"/>
<path d="M42.3114 25.9393C41.7164 25.3534 40.7523 25.3534 40.1572 25.9393L38.1875 27.8787V32.1209L42.3114 28.0604C42.9066 27.4744 42.9066 26.5252 42.3114 25.9393Z" fill="#F0E6E1"/>
<path d="M24.4766 16.5C24.4766 17.3399 23.8063 18 22.9531 18V15C23.8063 15 24.4766 15.6599 24.4766 16.5Z" fill="#F0E6E1"/>
<path d="M36.664 10.5C36.664 11.3399 35.9938 12 35.1406 12H22.9531V9H35.1406C35.9938 9 36.664 9.65989 36.664 10.5Z" fill="#F0E6E1"/>
</svg>
