<svg width="54" height="54" viewBox="0 0 54 54" fill="none" xmlns="http://www.w3.org/2000/svg">
<g clip-path="url(#clip0_127_15953)">
<path d="M49.4999 11.6427H27L24.75 27.3461L27 44.9969H49.4999V11.6427Z" fill="#CBEBFE"/>
<path d="M4.5 11.6427H27V44.9968H4.5V11.6427Z" fill="#DCF2FD"/>
<path d="M27 10.0607L25.875 11.5961L27 13.2247H47.918V44.9969H51.082V10.0607H27Z" fill="#5A7BA0"/>
<path d="M2.91797 10.0607V44.9969H6.08203V13.2247H27V10.0607H2.91797Z" fill="#7397B8"/>
<path d="M27 43.0959L25.875 47.5959L27 51.0825H48.1993C51.3978 51.0825 54 48.4803 54 45.2817V43.096H27V43.0959Z" fill="#5A7BA0"/>
<path d="M0 43.0959V45.2816C0 48.4802 2.60223 51.0824 5.80078 51.0824H27V43.0959H0Z" fill="#7397B8"/>
<path d="M31.9571 3.68057C31.9571 3.68057 26.9336 10.1225 26.9003 10.122L25.875 19.1219L26.9003 37.1183C27.4345 37.1183 27.9627 37.0923 28.4845 37.0442L43.9981 19.8159C43.9099 12.2344 38.8637 5.82306 31.9571 3.68057Z" fill="#ABD9F4"/>
<path d="M15.7105 7.09867C12.1407 10.1954 9.8618 14.7435 9.80273 19.8157L21.3404 36.1894C23.0844 36.7908 24.9549 37.1181 26.9007 37.1181V10.1218L15.7105 7.09867Z" fill="#BAE9FF"/>
<path d="M26.9003 16.1978C26.9336 16.1983 26.9666 16.2001 27 16.2001H31.9571V3.68041C30.3584 3.18449 28.6599 2.91713 26.9003 2.91713L25.875 10.1218L26.9003 16.1978Z" fill="#0DCA71"/>
<path d="M26.9011 16.1978V2.91713C22.6254 2.91713 18.7121 4.49515 15.7109 7.09854L20.9758 10.9517C21.3787 13.8803 23.875 16.1487 26.9011 16.1978Z" fill="#04DB7B"/>
<path d="M25.3151 24.1955C25.3151 21.7804 23.3502 19.8156 20.9351 19.8156H9.80136C9.80062 19.8829 9.79883 19.95 9.79883 20.0175C9.79883 27.5009 14.6311 33.8764 21.339 36.1892V28.5571C23.5655 28.3525 25.3151 26.4744 25.3151 24.1955Z" fill="#04DB7B"/>
<path d="M43.9987 20.0175C43.9987 19.95 43.9969 19.8829 43.9961 19.8156H32.4586V25.9642C30.1708 26.5809 28.4824 28.6738 28.4824 31.1537V37.0439C37.1717 36.2419 43.9987 28.9125 43.9987 20.0175Z" fill="#0DCA71"/>
</g>
<defs>
<clipPath id="clip0_127_15953">
<rect width="54" height="54" fill="white"/>
</clipPath>
</defs>
</svg>
