<svg width="32" height="32" viewBox="0 0 32 32" fill="none" xmlns="http://www.w3.org/2000/svg">
<g clip-path="url(#clip0_132_292)">
<path d="M16 31.999C24.8366 31.999 32 24.8356 32 15.999C32 7.16247 24.8366 -0.000976562 16 -0.000976562C7.16344 -0.000976562 0 7.16247 0 15.999C0 24.8356 7.16344 31.999 16 31.999Z" fill="#007AB9"/>
<path d="M25.5603 17.287V23.8835H21.7359V17.7291C21.7359 16.1838 21.1837 15.1285 19.799 15.1285C18.7423 15.1285 18.1145 15.839 17.8373 16.5269C17.7366 16.7728 17.7106 17.1142 17.7106 17.459V23.8832H13.8859C13.8859 23.8832 13.9373 13.4597 13.8859 12.3808H17.7109V14.0108C17.7032 14.0236 17.6924 14.0362 17.6856 14.0484H17.7109V14.0108C18.2192 13.2287 19.1256 12.1107 21.1578 12.1107C23.6739 12.1107 25.5603 13.7546 25.5603 17.287ZM9.88492 6.83618C8.57663 6.83618 7.7207 7.69496 7.7207 8.82328C7.7207 9.92763 8.55182 10.8112 9.83472 10.8112H9.85953C11.1935 10.8112 12.0229 9.92763 12.0229 8.82328C11.9975 7.69496 11.1935 6.83618 9.88492 6.83618ZM7.94802 23.8835H11.7713V12.3808H7.94802V23.8835Z" fill="#F1F2F2"/>
</g>
<defs>
<clipPath id="clip0_132_292">
<rect width="32" height="32" fill="white"/>
</clipPath>
</defs>
</svg>
