<svg width="52" height="52" viewBox="0 0 52 52" fill="none" xmlns="http://www.w3.org/2000/svg">
<g clip-path="url(#clip0_280_5678)">
<path d="M51.6472 10.4414L42.3848 7.4436V14.4054L51.6472 11.4076C52.1158 11.2561 52.1158 10.5932 51.6472 10.4414Z" fill="#E28086"/>
<path d="M51.6477 10.4416L48.5853 9.4505L42.3848 11.4573V14.4055L51.6477 11.4076C52.1161 11.256 52.1161 10.5933 51.6477 10.4416Z" fill="#DD636E"/>
<path d="M42.3866 21.7447C41.9594 21.7447 41.6133 21.3986 41.6133 20.9714V7.44377C41.6133 7.0167 41.9594 6.67047 42.3866 6.67047C42.8136 6.67047 43.1599 7.0166 43.1599 7.44377V20.9715C43.1599 21.3986 42.8138 21.7447 42.3866 21.7447Z" fill="#6B61B1"/>
<path d="M47.3725 45.6779H37.3984C36.8375 45.6779 36.3828 45.2232 36.3828 44.6622V41.5407C36.3828 40.9798 36.8375 40.5251 37.3984 40.5251H47.3725C47.9334 40.5251 48.3881 40.9798 48.3881 41.5407V44.6622C48.3881 45.2232 47.9334 45.6779 47.3725 45.6779Z" fill="#FFD064"/>
<path d="M47.3725 40.5252H37.3984C36.8375 40.5252 36.3828 40.0705 36.3828 39.5096V36.3881C36.3828 35.8271 36.8375 35.3724 37.3984 35.3724H47.3725C47.9334 35.3724 48.3881 35.8271 48.3881 36.3881V39.5096C48.3881 40.0704 47.9334 40.5252 47.3725 40.5252Z" fill="#FFD064"/>
<path d="M47.3725 35.3723H37.3984C36.8375 35.3723 36.3828 34.9176 36.3828 34.3567V31.2352C36.3828 30.6742 36.8375 30.2195 37.3984 30.2195H47.3725C47.9334 30.2195 48.3881 30.6742 48.3881 31.2352V34.3567C48.3881 34.9175 47.9334 35.3723 47.3725 35.3723Z" fill="#FFD064"/>
<path d="M47.3725 30.2196H37.3984C36.8375 30.2196 36.3828 29.7649 36.3828 29.204V26.0825C36.3828 25.5215 36.8375 25.0668 37.3984 25.0668H47.3725C47.9334 25.0668 48.3881 25.5215 48.3881 26.0825V29.204C48.3881 29.7648 47.9334 30.2196 47.3725 30.2196Z" fill="#FFD064"/>
<path d="M47.3725 25.0668H37.3984C36.8375 25.0668 36.3828 24.6121 36.3828 24.0512V20.9297C36.3828 20.3688 36.8375 19.9141 37.3984 19.9141H47.3725C47.9334 19.9141 48.3881 20.3688 48.3881 20.9297V24.0512C48.3881 24.6121 47.9334 25.0668 47.3725 25.0668Z" fill="#FFD064"/>
<path d="M47.3728 40.5253H46.2179V42.4927C46.2179 43.0534 45.7633 43.508 45.2026 43.508H36.3828V44.6629C36.3828 45.2236 36.8374 45.6782 37.3981 45.6782H47.3729C47.9336 45.6782 48.3882 45.2236 48.3882 44.6629V41.5407C48.3881 40.9798 47.9335 40.5253 47.3728 40.5253Z" fill="#FFC250"/>
<path d="M47.3728 35.3724H46.2179V37.3398C46.2179 37.9005 45.7633 38.3551 45.2026 38.3551H36.3828V39.51C36.3828 40.0707 36.8374 40.5253 37.3981 40.5253H47.3729C47.9336 40.5253 48.3882 40.0707 48.3882 39.51V36.3878C48.3881 35.8269 47.9335 35.3724 47.3728 35.3724Z" fill="#FFC250"/>
<path d="M47.3728 30.2197H46.2179V32.1871C46.2179 32.7478 45.7633 33.2024 45.2026 33.2024H36.3828V34.3573C36.3828 34.918 36.8374 35.3726 37.3981 35.3726H47.3729C47.9336 35.3726 48.3882 34.918 48.3882 34.3573V31.235C48.3881 30.6742 47.9335 30.2197 47.3728 30.2197Z" fill="#FFC250"/>
<path d="M47.3728 25.0667H46.2179V27.0341C46.2179 27.5948 45.7633 28.0494 45.2026 28.0494H36.3828V29.2043C36.3828 29.765 36.8374 30.2196 37.3981 30.2196H47.3729C47.9336 30.2196 48.3882 29.765 48.3882 29.2043V26.082C48.3881 25.5213 47.9335 25.0667 47.3728 25.0667Z" fill="#FFC250"/>
<path d="M47.3728 19.9141H46.2179V21.8814C46.2179 22.4422 45.7633 22.8967 45.2026 22.8967H36.3828V24.0516C36.3828 24.6123 36.8374 25.0669 37.3981 25.0669H47.3729C47.9336 25.0669 48.3882 24.6123 48.3882 24.0516V20.9294C48.3881 20.3687 47.9335 19.9141 47.3728 19.9141Z" fill="#FFC250"/>
<path d="M30.5893 45.6779H20.6152C20.0543 45.6779 19.5996 45.2232 19.5996 44.6622V41.5407C19.5996 40.9798 20.0543 40.5251 20.6152 40.5251H30.5893C31.1502 40.5251 31.6049 40.9798 31.6049 41.5407V44.6622C31.6049 45.2232 31.1501 45.6779 30.5893 45.6779Z" fill="#FFD064"/>
<path d="M30.5893 40.5252H20.6152C20.0543 40.5252 19.5996 40.0705 19.5996 39.5096V36.3881C19.5996 35.8271 20.0543 35.3724 20.6152 35.3724H30.5893C31.1502 35.3724 31.6049 35.8271 31.6049 36.3881V39.5096C31.6049 40.0704 31.1501 40.5252 30.5893 40.5252Z" fill="#FFD064"/>
<path d="M30.5893 35.3723H20.6152C20.0543 35.3723 19.5996 34.9176 19.5996 34.3567V31.2352C19.5996 30.6742 20.0543 30.2195 20.6152 30.2195H30.5893C31.1502 30.2195 31.6049 30.6742 31.6049 31.2352V34.3567C31.6049 34.9175 31.1501 35.3723 30.5893 35.3723Z" fill="#FFD064"/>
<path d="M30.5897 40.5251H29.4348V42.4925C29.4348 43.0532 28.9802 43.5078 28.4195 43.5078H19.5996V44.6626C19.5996 45.2234 20.0542 45.678 20.6149 45.678H30.5897C31.1504 45.678 31.605 45.2234 31.605 44.6626V41.5404C31.605 40.9796 31.1504 40.5251 30.5897 40.5251Z" fill="#FFC250"/>
<path d="M30.5897 35.3724H29.4348V37.3398C29.4348 37.9005 28.9802 38.3551 28.4195 38.3551H19.5996V39.51C19.5996 40.0707 20.0542 40.5253 20.6149 40.5253H30.5897C31.1504 40.5253 31.605 40.0707 31.605 39.51V36.3878C31.605 35.8269 31.1504 35.3724 30.5897 35.3724Z" fill="#FFC250"/>
<path d="M30.5897 30.2195H29.4348V32.1869C29.4348 32.7476 28.9802 33.2022 28.4195 33.2022H19.5996V34.3571C19.5996 34.9178 20.0542 35.3724 20.6149 35.3724H30.5897C31.1504 35.3724 31.605 34.9178 31.605 34.3571V31.2349C31.605 30.674 31.1504 30.2195 30.5897 30.2195Z" fill="#FFC250"/>
<path d="M13.8061 45.6779H3.83203C3.2711 45.6779 2.81641 45.2232 2.81641 44.6622V41.5407C2.81641 40.9798 3.2711 40.5251 3.83203 40.5251H13.8061C14.367 40.5251 14.8217 40.9798 14.8217 41.5407V44.6622C14.8217 45.2232 14.367 45.6779 13.8061 45.6779Z" fill="#FFD064"/>
<path d="M13.8061 40.5252H3.83203C3.2711 40.5252 2.81641 40.0705 2.81641 39.5096V36.3881C2.81641 35.8271 3.2711 35.3724 3.83203 35.3724H13.8061C14.367 35.3724 14.8217 35.8271 14.8217 36.3881V39.5096C14.8217 40.0704 14.367 40.5252 13.8061 40.5252Z" fill="#FFD064"/>
<path d="M13.8065 40.5251H12.6516V42.4925C12.6516 43.0532 12.197 43.5078 11.6363 43.5078H2.81641V44.6626C2.81641 45.2234 3.271 45.678 3.83173 45.678H13.8065C14.3672 45.678 14.8218 45.2234 14.8218 44.6626V41.5404C14.8217 40.9796 14.3671 40.5251 13.8065 40.5251Z" fill="#FFC250"/>
<path d="M13.8065 35.3724H12.6516V37.3398C12.6516 37.9005 12.197 38.3551 11.6363 38.3551H2.81641V39.51C2.81641 40.0707 3.271 40.5253 3.83173 40.5253H13.8065C14.3672 40.5253 14.8218 40.0707 14.8218 39.51V36.3878C14.8217 35.8269 14.3671 35.3724 13.8065 35.3724Z" fill="#FFC250"/>
<path d="M30.8282 13.0524C30.44 13.0524 30.1054 12.7606 30.0608 12.3658L29.7979 10.0346C29.7501 9.61018 30.0553 9.22739 30.4797 9.17945C30.9038 9.13222 31.2869 9.43681 31.3348 9.86124L31.5978 12.1924C31.6456 12.6168 31.3404 12.9996 30.916 13.0476C30.8864 13.0508 30.8572 13.0524 30.8282 13.0524Z" fill="#FFCBBE"/>
<path d="M16.1486 20.8543C15.9506 20.8543 15.7528 20.7788 15.6018 20.6277L14.123 19.1489C13.821 18.8469 13.821 18.3574 14.123 18.0553C14.4251 17.7534 14.9147 17.7533 15.2166 18.0554L16.6954 19.5342C16.9974 19.8362 16.9974 20.3257 16.6954 20.6278C16.5444 20.7788 16.3464 20.8543 16.1486 20.8543Z" fill="#EAAC9D"/>
<path d="M30.7726 11.3017L29.975 11.6027L27.9736 13.8133L24.8618 12.1095C24.4546 11.8866 24.0153 11.74 23.5556 11.6736L20.5955 11.247C20.2094 11.1914 19.8187 11.1945 19.4331 11.2558L14.5488 12.0362C13.6028 12.1874 12.8911 12.9601 12.8181 13.9152L12.4082 18.1443L12.465 18.55L15.3602 18.7172L15.4998 18.3395L15.8322 15.0411C15.8369 14.9946 15.8723 14.957 15.9185 14.9496L18.0482 14.6093C18.1219 14.5975 18.1824 14.6653 18.1632 14.7376C17.8088 16.0755 17.7031 17.4686 17.8529 18.8471L18.1341 21.4352L21.8459 20.9713C21.8459 20.9713 23.6904 20.4167 24.2547 18.5796L25.0788 15.896C25.098 15.8335 25.1696 15.8045 25.2269 15.8359L27.2017 16.9171C28.0418 17.3769 29.0776 17.2019 29.7205 16.4919L32.3057 13.6365L32.4984 12.8243L30.7726 11.3017Z" fill="#E28086"/>
<path d="M15.4906 15.0186C15.0333 15.0916 14.6825 15.4635 14.6361 15.9242L14.3745 18.52L14.3773 18.5202L14.3633 18.6581L15.3589 18.7173L15.4984 18.3396L15.8309 15.0413C15.8354 14.9962 15.869 14.9601 15.9131 14.9512L15.4906 15.0186Z" fill="#DD636E"/>
<path d="M31.8704 12.3176L29.5232 14.9102C28.8083 15.6995 27.6569 15.894 26.7227 15.3829L24.9823 14.4299C24.6837 14.2664 24.3101 14.4181 24.2102 14.7437L23.4461 17.2312C22.8188 19.2737 20.7681 19.8903 20.7681 19.8903L18.0039 20.2359L18.1342 21.4354L21.846 20.9715C21.846 20.9715 23.6905 20.4169 24.2548 18.5798L25.079 15.8962C25.0981 15.8337 25.1698 15.8047 25.227 15.8361L27.2018 16.9173C28.0419 17.3771 29.0777 17.2021 29.7207 16.4922L32.3058 13.6367L32.4985 12.8246L31.8704 12.3176Z" fill="#DD636E"/>
<path d="M22.9647 12.6076L21.7317 12.3761C21.3514 12.3047 21.1008 11.9384 21.1723 11.558L21.8077 8.17407L24.4281 8.66604L23.7947 12.04C23.7222 12.426 23.3507 12.6801 22.9647 12.6076Z" fill="#FFCBBE"/>
<path d="M23.3145 8.45685L22.6588 11.949C22.6134 12.1909 22.4505 12.3809 22.2402 12.4714L22.9655 12.6076C23.3512 12.68 23.7227 12.426 23.7952 12.0403L24.4287 8.66607L23.3145 8.45685Z" fill="#EAAC9D"/>
<path d="M25.5357 9.18214L25.2205 7.79175C25.0808 6.37211 23.7732 5.34937 22.3429 5.58175C21.1303 5.77868 20.2307 6.86144 20.2605 8.08963C20.2923 9.40294 21.3162 10.4223 22.5597 10.5143C22.8008 10.5322 23.0379 10.5854 23.2603 10.6803C23.2842 10.6904 23.3083 10.7002 23.3324 10.7095C23.464 10.76 23.6285 10.5674 23.7664 10.5909C23.8607 10.607 23.9272 10.8466 24.0228 10.8498C24.164 10.8547 24.3061 10.8454 24.4469 10.8219L24.5187 10.8099C25.2473 10.6385 25.7012 9.91197 25.5357 9.18214Z" fill="#FFCBBE"/>
<path d="M25.5354 9.18215L25.2201 7.79176C25.0805 6.37212 23.7729 5.34939 22.3426 5.58166C22.2303 5.59984 22.122 5.62808 22.0156 5.66088C22.9405 5.94922 23.6501 6.7669 23.7508 7.79176L24.066 9.18215C24.2087 9.81154 23.89 10.4378 23.3325 10.7082C23.6868 10.8443 24.0712 10.8846 24.4465 10.8219L24.5183 10.8099C25.2469 10.6386 25.7008 9.91198 25.5354 9.18215Z" fill="#EAAC9D"/>
<path d="M26.5704 31.6573C26.299 31.6574 26.0243 31.5859 25.7747 31.4358L24.4326 30.6285C23.8478 30.2766 23.5627 29.5832 23.731 28.9218L25.0008 23.9324C25.0264 23.832 24.9734 23.7282 24.877 23.6899L22.25 22.6471C22.0333 22.561 21.7985 22.5306 21.567 22.5583C21.1667 22.6064 20.8065 22.8249 20.5789 23.1577C20.5789 23.1577 18.5226 26.4382 17.8649 27.3977C17.0223 28.6269 16.539 28.7912 15.8634 28.8609L10.404 29.158C10.3131 29.163 10.2362 29.2269 10.2148 29.3154L10.1143 29.7295C9.91293 30.5595 9.07656 31.069 8.24679 30.8679C7.41672 30.6665 6.90708 29.8305 7.10838 29.0004L7.51605 27.3201C7.67693 26.6569 8.2535 26.1775 8.93498 26.1404L14.8139 25.8204C14.8859 25.8164 14.9507 25.7752 14.9847 25.7115L17.9557 20.1422C17.9753 20.1055 18.0119 20.081 18.0533 20.0768L23.7148 19.5076C23.7781 19.5012 23.8418 19.5149 23.8971 19.5466L27.2968 21.5014C28.0823 21.9737 28.4583 22.8881 28.2323 23.7769L27.0501 28.4221C27.0276 28.5103 27.0656 28.6028 27.1436 28.6497L27.3337 28.7641C28.0377 29.1874 28.3244 30.0874 27.9477 30.8174C27.6693 31.3567 27.1272 31.6573 26.5704 31.6573Z" fill="#5E54AC"/>
<path d="M27.2961 21.5013L23.8964 19.5465C23.8413 19.5148 23.7775 19.5011 23.7141 19.5075L21.707 19.7093L25.7108 22.0427C26.4963 22.5149 26.8724 23.4293 26.6463 24.3181L25.5154 28.7618C25.4625 28.9696 25.5521 29.1876 25.7359 29.2982C26.266 29.617 26.5878 30.21 26.5206 30.8249C26.4854 31.1462 26.3631 31.4026 26.1983 31.6113C26.321 31.6419 26.4457 31.6575 26.5697 31.6575C27.1265 31.6575 27.6686 31.3569 27.947 30.8174C28.3237 30.0874 28.037 29.1875 27.3331 28.7641L27.143 28.6497C27.065 28.6028 27.027 28.5104 27.0494 28.4221L28.2316 23.7768C28.4577 22.8881 28.0816 21.9736 27.2961 21.5013Z" fill="#524798"/>
<path d="M33.8251 10.7048L32.7373 9.75556C32.3985 9.45991 31.8853 9.49008 31.5835 9.8234L29.9727 11.6028L32.3037 13.6369L33.8944 11.8799C34.204 11.5377 34.1729 11.0081 33.8251 10.7048Z" fill="#FFCBBE"/>
<path d="M33.8264 10.7046L33.549 10.4625L32.3965 11.7355L31.3945 12.8422L32.3049 13.6366L33.8956 11.8797C34.2054 11.5375 34.1742 11.008 33.8264 10.7046Z" fill="#EAAC9D"/>
<path d="M50.4312 46.4513H0.773297C0.346227 46.4513 0 46.1052 0 45.678C0 45.2509 0.346227 44.9047 0.773297 44.9047H50.4313C50.8584 44.9047 51.2046 45.2509 51.2046 45.678C51.2045 46.1051 50.8583 46.4513 50.4312 46.4513Z" fill="#6B61B1"/>
<path d="M15.4977 18.3395L12.4061 18.1443L12.172 20.4806C12.1268 20.9418 12.4702 21.3497 12.9323 21.3837L14.3735 21.49C14.8193 21.5228 15.21 21.1947 15.2549 20.7501L15.2978 20.3293L14.932 19.1192L15.4977 18.3395Z" fill="#FFCBBE"/>
<path d="M14.3751 18.5198L14.378 18.52L14.1323 20.9303C14.1239 21.0137 14.1033 21.0929 14.0725 21.1665C14.0373 21.2503 13.9883 21.3262 13.9294 21.3928C13.9106 21.414 13.8898 21.4333 13.8691 21.4526L14.3748 21.4899C14.8206 21.5227 15.2113 21.1947 15.2562 20.75L15.4991 18.3394L14.4003 18.2701L14.3751 18.5198Z" fill="#EAAC9D"/>
</g>
<defs>
<clipPath id="clip0_280_5678">
<rect width="52" height="52" fill="white"/>
</clipPath>
</defs>
</svg>
