<svg width="52" height="52" viewBox="0 0 52 52" fill="none" xmlns="http://www.w3.org/2000/svg">
<g clip-path="url(#clip0_280_5550)">
<path d="M15.9305 12.1793L18.001 16.3393L22.6307 17.0066C22.956 17.0513 23.2273 17.2776 23.3294 17.5897C23.4316 17.9017 23.3467 18.2446 23.1109 18.473L19.7595 21.7169L20.5499 26.2929C20.6024 26.6169 20.4674 26.9428 20.2012 27.1347C19.9349 27.3267 19.5831 27.3517 19.2923 27.1995L15.1514 25.0389L11.0105 27.1995C10.7197 27.3517 10.3679 27.3267 10.1016 27.1347C9.83537 26.9428 9.70039 26.6169 9.75294 26.2929L10.5442 21.7169L7.19281 18.4765C6.95695 18.2481 6.8721 17.9051 6.97426 17.5931C7.07642 17.2811 7.34768 17.0547 7.67294 17.0101L12.3027 16.3428L14.374 12.1828C14.5189 11.8854 14.8204 11.6964 15.1512 11.6957C15.482 11.6949 15.7843 11.8826 15.9305 12.1793Z" fill="#F0C419"/>
<path d="M34.1637 1.7975L37.0298 7.63537L43.4431 8.57137C43.7784 8.62185 44.0563 8.85781 44.1605 9.18053C44.2646 9.50326 44.1771 9.85713 43.9345 10.0941L39.2935 14.638L40.3881 21.0514C40.4468 21.385 40.3106 21.7229 40.037 21.9226C39.7635 22.1224 39.4001 22.1492 39.1002 21.9917L33.3672 18.9584L27.6342 21.9917C27.335 22.148 26.973 22.1212 26.7001 21.9225C26.4272 21.7239 26.2904 21.3876 26.3472 21.0548L27.4418 14.6415L22.8043 10.0976C22.5617 9.86059 22.4742 9.50673 22.5784 9.184C22.6825 8.86127 22.9604 8.62532 23.2957 8.57484L29.709 7.63884L32.5751 1.80097C32.7241 1.49884 33.0315 1.30726 33.3683 1.30652C33.7052 1.30579 34.0134 1.49603 34.1637 1.7975Z" fill="#F3D55B"/>
<path d="M41.565 28.1494L41.5476 28.1321C40.8444 27.5133 39.7743 27.5751 39.147 28.2707L36.3996 31.1567V30.3334C36.3996 29.1368 35.4296 28.1667 34.233 28.1667C33.0364 28.1667 32.0663 29.1368 32.0663 30.3334V35.7241L30.515 37.3534C29.8782 38.0051 29.0367 38.4182 28.1316 38.5234C27.9858 38.5507 27.838 38.5652 27.6896 38.5668H24.145C23.9967 38.5652 23.8488 38.5507 23.703 38.5234C22.8058 38.4206 21.9709 38.0138 21.337 37.3708L15.253 30.9747C15.0907 30.8033 14.865 30.7062 14.629 30.7061C14.455 30.7072 14.2856 30.7616 14.1436 30.8621C12.6537 32.2148 12.4752 34.4939 13.7363 36.0621L16.319 38.8614C16.6475 39.1849 16.8324 39.6267 16.8324 40.0878C16.8324 40.5488 16.6475 40.9906 16.319 41.3141L14.993 42.6401L14.369 42.0941C14.0395 41.8039 13.5457 41.8039 13.2163 42.0941L6.05764 48.5421C5.52166 49.022 5.33784 49.7831 5.59572 50.4547C5.85359 51.1264 6.49954 51.5689 7.21897 51.5668H18.9276C19.3561 51.568 19.7698 51.4106 20.089 51.1248L21.6316 49.7381C21.8165 49.5738 21.9215 49.3378 21.9198 49.0905C21.9182 48.8432 21.81 48.6086 21.623 48.4468L20.999 47.9008L22.6976 46.2454C23.1872 45.7688 23.843 45.5014 24.5263 45.5001H26.1556C28.6928 45.5053 31.0719 44.2688 32.5256 42.1894C33.5291 40.7384 34.6081 39.3411 35.7583 38.0034C35.8546 37.8943 35.9389 37.7752 36.0096 37.6481L36.027 37.6221L41.6343 31.6334C42.564 30.6471 42.5332 29.098 41.565 28.1494Z" fill="#FDD7AD"/>
<path d="M21.6316 49.7381L20.089 51.1248C19.7698 51.4106 19.3561 51.5681 18.9276 51.5668H7.21897C6.49954 51.5689 5.85359 51.1264 5.59572 50.4548C5.33784 49.7831 5.52166 49.022 6.05764 48.5421L13.2163 42.0941C13.5457 41.8039 14.0396 41.8039 14.369 42.0941L14.993 42.6401L20.999 47.9008L21.623 48.4468C21.81 48.6086 21.9182 48.8432 21.9198 49.0905C21.9215 49.3378 21.8165 49.5738 21.6316 49.7381Z" fill="#955BA5"/>
<path d="M17.3338 49.8334C17.104 49.8333 16.8836 49.742 16.7211 49.5794L15.1905 48.0489C14.8621 47.7088 14.8668 47.1683 15.2011 46.834C15.5354 46.4997 16.076 46.495 16.416 46.8234L17.9466 48.354C18.1943 48.6018 18.2684 48.9745 18.1343 49.2983C18.0002 49.6221 17.6843 49.8333 17.3338 49.8334Z" fill="#3D324C"/>
<path d="M41.6347 31.6334L36.0273 37.6221C36.2706 37.2257 36.3996 36.7698 36.4 36.3048V31.1567L39.1473 28.2707C39.7746 27.5751 40.8448 27.5133 41.548 28.1321L41.5653 28.1494C42.5335 29.098 42.5644 30.6471 41.6347 31.6334Z" fill="#F9C795"/>
<path d="M2.56783 12.3345C2.50965 12.3348 2.45158 12.3293 2.39449 12.318L0.694094 11.98C0.224541 11.8867 -0.0804424 11.4304 0.0128937 10.9608C0.10623 10.4913 0.562541 10.1863 1.03209 10.2796L2.73249 10.6176C3.16995 10.7041 3.47036 11.1085 3.42689 11.5523C3.38343 11.9961 3.01029 12.3345 2.56436 12.3345H2.56783Z" fill="#F0C419"/>
<path d="M51.1342 21.8036C51.0761 21.8034 51.0181 21.7979 50.9609 21.7871L49.2605 21.4491C48.791 21.3558 48.486 20.8995 48.5793 20.4299C48.6726 19.9604 49.129 19.6554 49.5985 19.7487L51.2989 20.0867C51.7357 20.1731 52.036 20.5764 51.9935 21.0197C51.951 21.4629 51.5795 21.8018 51.1342 21.8036Z" fill="#F0C419"/>
<path d="M0.866708 21.8036C0.420779 21.8036 0.0476357 21.4652 0.00417367 21.0214C-0.0392884 20.5776 0.261118 20.1732 0.698574 20.0867L2.39897 19.7487C2.86853 19.6554 3.32484 19.9604 3.41817 20.4299C3.51151 20.8995 3.20653 21.3558 2.73697 21.4491L1.03657 21.7871C0.980558 21.7977 0.923708 21.8032 0.866708 21.8036Z" fill="#F0C419"/>
<path d="M49.4331 12.3345C48.9872 12.3345 48.614 11.9961 48.5706 11.5523C48.5271 11.1085 48.8275 10.7041 49.265 10.6176L50.9654 10.2796C51.4349 10.1863 51.8912 10.4913 51.9846 10.9608C52.0779 11.4304 51.7729 11.8867 51.3034 11.98L49.603 12.318C49.547 12.329 49.4901 12.3345 49.4331 12.3345Z" fill="#F0C419"/>
<path d="M4.61932 30.863C4.23759 30.8633 3.90063 30.6137 3.78954 30.2485C3.67844 29.8833 3.81937 29.4885 4.13658 29.2761L5.57785 28.3133C5.83531 28.1411 6.16505 28.1194 6.44287 28.2563C6.72069 28.3932 6.90438 28.6679 6.92474 28.9769C6.9451 29.2859 6.79904 29.5824 6.54158 29.7545L5.10032 30.7174C4.95788 30.8124 4.79051 30.863 4.61932 30.863Z" fill="#F0C419"/>
<path d="M45.9409 3.90005C45.5587 3.9009 45.221 3.65122 45.1098 3.28549C44.9986 2.91977 45.1402 2.52438 45.4582 2.31232L46.8995 1.34945C47.1569 1.1773 47.4867 1.15557 47.7645 1.29246C48.0423 1.42935 48.226 1.70405 48.2463 2.01309C48.2667 2.32213 48.1207 2.61856 47.8632 2.79072L46.4211 3.75358C46.279 3.8487 46.1119 3.89966 45.9409 3.90005Z" fill="#F0C419"/>
<path d="M6.05926 3.90005C5.88797 3.89983 5.72059 3.84886 5.57826 3.75358L4.13699 2.79072C3.87953 2.61856 3.73347 2.32213 3.75383 2.01309C3.7742 1.70405 3.95788 1.42935 4.2357 1.29246C4.51352 1.15557 4.84326 1.1773 5.10072 1.34945L6.54199 2.31232C6.86003 2.52438 7.00157 2.91977 6.89038 3.28549C6.77918 3.65122 6.44151 3.9009 6.05926 3.90005Z" fill="#F0C419"/>
<path d="M47.38 30.8629C47.2088 30.8629 47.0414 30.8123 46.899 30.7173L45.4577 29.7544C45.0626 29.4874 44.9574 28.9514 45.2223 28.5549C45.4872 28.1584 46.0227 28.0503 46.4206 28.3132L47.8627 29.276C48.1799 29.4884 48.3209 29.8833 48.2098 30.2485C48.0987 30.6137 47.7617 30.8632 47.38 30.8629Z" fill="#F0C419"/>
</g>
<defs>
<clipPath id="clip0_280_5550">
<rect width="52" height="52" fill="white"/>
</clipPath>
</defs>
</svg>
