<svg width="63" height="62" viewBox="0 0 63 62" fill="none" xmlns="http://www.w3.org/2000/svg">
<g clip-path="url(#clip0_127_10536)">
<path d="M45.5206 38.6578C46.8504 38.6578 48.1466 38.2394 49.2255 37.4618C50.3043 36.6841 51.1112 35.5868 51.5317 34.3251L52.1173 32.5685H51.1024C50.5641 32.5685 50.0478 32.3547 49.6671 31.974C49.2865 31.5933 49.0726 31.0771 49.0726 30.5387V23.4346H40.9536V30.5387C40.9536 31.0771 40.7397 31.5933 40.3591 31.974C39.9784 32.3547 39.4622 32.5685 38.9238 32.5685L39.5094 34.3251C39.9299 35.5868 40.7368 36.6841 41.8156 37.4618C42.8945 38.2394 44.1907 38.6578 45.5206 38.6578Z" fill="#FDC8A2"/>
<path d="M23.7012 58.9553H30.8053L34.8231 45.2949L27.7649 43.8618L23.7012 58.9553Z" fill="#FDC8A2"/>
<path d="M55.1615 32.5685H52.1169L51.5313 34.3251C51.1108 35.5868 50.3039 36.6841 49.2251 37.4617C48.1462 38.2394 46.85 38.6578 45.5202 38.6578C44.1903 38.6578 42.8941 38.2394 41.8152 37.4617C40.7364 36.6841 39.9295 35.5868 39.509 34.3251L38.9234 32.5685H34.6933C33.5773 32.5685 32.4924 32.9364 31.6067 33.6152C30.7209 34.294 30.0836 35.2459 29.7934 36.3235L27.7637 43.8617L34.8219 45.2952L35.8788 41.7024V58.9554H54.1466V45.7619H60.2359V37.6429C60.2359 36.2971 59.7013 35.0064 58.7497 34.0547C57.798 33.1031 56.5073 32.5685 55.1615 32.5685Z" fill="#EC8C8C"/>
<path d="M49.0722 23.4346V28.5737C47.8102 29.1987 46.4209 29.5239 45.0126 29.5239C43.6044 29.5239 42.2151 29.1987 40.9531 28.5737V23.4346H49.0722Z" fill="#FDBF92"/>
<path d="M54.1465 58.9554H56.1762C57.2529 58.9554 58.2855 58.5277 59.0468 57.7663C59.8081 57.005 60.2358 55.9725 60.2358 54.8958V45.7619H54.1465V58.9554Z" fill="#FDC8A2"/>
<path d="M54.1471 41.7024V39.6727H35.8792V41.7024C34.5334 43.0483 33.7773 44.8736 33.7773 46.7768C33.7773 48.6801 34.5334 50.5054 35.8792 51.8512V58.9554H54.1471V51.8512C55.4929 50.5054 56.2489 48.6801 56.2489 46.7768C56.2489 44.8736 55.4929 43.0483 54.1471 41.7024Z" fill="#EC8C8C"/>
<path d="M45.5199 43.7321C42.7999 43.7321 41.1527 42.6989 40.25 41.8321L41.6559 40.3681C42.5649 41.241 43.9012 41.7024 45.5199 41.7024C47.8263 41.7024 49.0604 40.7981 49.6896 40.0396L51.2519 41.3355C50.3449 42.4289 48.6144 43.7321 45.5199 43.7321Z" fill="#E07F7F"/>
<path d="M35.8789 54.8959H43.998L51.5674 57.9236C53.2714 58.6053 55.0898 58.9554 56.925 58.9554C57.8031 58.9554 58.6453 58.6066 59.2663 57.9856C59.8872 57.3647 60.236 56.5225 60.236 55.6444C60.236 54.866 59.9617 54.1126 59.4614 53.5164C58.9611 52.9202 58.2668 52.5193 57.5003 52.384L42.9831 49.8215H38.9235L35.8789 50.8364V54.8959Z" fill="#FDC8A2"/>
<path d="M34.865 13.2858H35.8798V19.3751H34.865C34.0575 19.3751 33.2831 19.0543 32.7121 18.4833C32.1411 17.9123 31.8203 17.1379 31.8203 16.3304C31.8203 15.5229 32.1411 14.7485 32.7121 14.1775C33.2831 13.6065 34.0575 13.2858 34.865 13.2858Z" fill="#FDB683"/>
<path d="M45.0128 27.4941C42.5904 27.4941 40.2671 26.5318 38.5542 24.8188C36.8412 23.1059 35.8789 20.7826 35.8789 18.3602V11.256C35.8789 9.10271 36.7343 7.03759 38.2569 5.51498C39.7795 3.99236 41.8446 3.13696 43.998 3.13696H46.0277C48.181 3.13696 50.2461 3.99236 51.7687 5.51498C53.2914 7.03759 54.1468 9.10271 54.1468 11.256V18.3602C54.1468 20.7826 53.1844 23.1059 51.4715 24.8188C49.7586 26.5318 47.4353 27.4941 45.0128 27.4941Z" fill="#FDC8A2"/>
<path d="M39.4305 17.3453C39.1294 17.3453 38.8351 17.256 38.5848 17.0887C38.3344 16.9215 38.1393 16.6837 38.0241 16.4055C37.9089 16.1274 37.8787 15.8213 37.9375 15.526C37.9962 15.2307 38.1412 14.9594 38.3541 14.7465C38.567 14.5336 38.8382 14.3886 39.1335 14.3299C39.4288 14.2712 39.7349 14.3013 40.0131 14.4165C40.2913 14.5318 40.529 14.7269 40.6963 14.9772C40.8636 15.2276 40.9528 15.5219 40.9528 15.823C40.9524 16.2266 40.7919 16.6135 40.5065 16.8989C40.2211 17.1843 39.8341 17.3449 39.4305 17.3453Z" fill="#91563A"/>
<path d="M48.5653 17.3453C48.2642 17.3453 47.9699 17.256 47.7195 17.0887C47.4692 16.9215 47.2741 16.6837 47.1588 16.4055C47.0436 16.1274 47.0135 15.8213 47.0722 15.526C47.131 15.2307 47.2759 14.9594 47.4888 14.7465C47.7017 14.5336 47.973 14.3886 48.2683 14.3299C48.5636 14.2712 48.8697 14.3013 49.1479 14.4165C49.426 14.5318 49.6638 14.7269 49.8311 14.9772C49.9983 15.2276 50.0876 15.5219 50.0876 15.823C50.0872 16.2266 49.9266 16.6135 49.6413 16.8989C49.3559 17.1843 48.9689 17.3449 48.5653 17.3453Z" fill="#91563A"/>
<path d="M33.8496 11.256V14.3006C47.0431 13.2857 51.1026 7.19645 51.1026 7.19645L54.1472 13.2857L56.177 14.3006V11.256C56.177 8.29518 55.0008 5.45565 52.9072 3.36205C50.8136 1.26846 47.9741 0.0922852 45.0133 0.0922852C42.0525 0.0922852 39.213 1.26846 37.1194 3.36205C35.0258 5.45565 33.8496 8.29518 33.8496 11.256Z" fill="#91563A"/>
<path d="M54.1465 13.2858H55.1614C55.9689 13.2858 56.7433 13.6065 57.3143 14.1775C57.8852 14.7485 58.206 15.5229 58.206 16.3304C58.206 17.1379 57.8852 17.9123 57.3143 18.4833C56.7433 19.0543 55.9689 19.3751 55.1614 19.3751H54.1465V13.2858Z" fill="#FDB683"/>
<path d="M43.9978 23.4345C43.1906 23.4336 42.4167 23.1126 41.8459 22.5418C41.2751 21.971 40.954 21.1971 40.9531 20.3899H42.9829C42.9829 20.6591 43.0898 20.9172 43.2801 21.1075C43.4705 21.2978 43.7286 21.4048 43.9978 21.4048C44.2669 21.4048 44.5251 21.2978 44.7154 21.1075C44.9057 20.9172 45.0126 20.6591 45.0126 20.3899H47.0424C47.0415 21.1971 46.7204 21.971 46.1497 22.5418C45.5789 23.1126 44.805 23.4336 43.9978 23.4345Z" fill="#FCB079"/>
<path d="M33.85 26.4792H5.43331C3.7518 26.4792 2.38867 27.8423 2.38867 29.5238V47.7917C2.38867 49.4732 3.7518 50.8363 5.43331 50.8363H33.85C35.5315 50.8363 36.8946 49.4732 36.8946 47.7917V29.5238C36.8946 27.8423 35.5315 26.4792 33.85 26.4792Z" fill="#D5D5D3"/>
<path d="M15.582 54.8959H27.7606V58.9554H15.582V54.8959Z" fill="#D5D5D3"/>
<path d="M21.6703 58.9554H11.5215L15.581 42.7173H23.7001L21.6703 58.9554Z" fill="#DFDFDD"/>
<path d="M5.43164 29.5238H9.49116V31.5536H5.43164V29.5238Z" fill="#C6C6C4"/>
<path d="M11.5215 29.5238H15.581V31.5536H11.5215V29.5238Z" fill="#C6C6C4"/>
<path d="M17.6094 29.5238H21.6689V31.5536H17.6094V29.5238Z" fill="#C6C6C4"/>
<path d="M23.6992 29.5238H27.7587V31.5536H23.6992V29.5238Z" fill="#C6C6C4"/>
<path d="M29.7891 29.5238H33.8486V31.5536H29.7891V29.5238Z" fill="#C6C6C4"/>
<path d="M1.37305 58.9554H62.2659V60.9851H1.37305V58.9554Z" fill="#DFDFDD"/>
<path d="M31.8203 54.8959H45.0138V58.9554H31.8203V54.8959Z" fill="#DFDFDD"/>
</g>
<defs>
<clipPath id="clip0_127_10536">
<rect width="62.9841" height="62" fill="white"/>
</clipPath>
</defs>
</svg>
