<svg width="54" height="54" viewBox="0 0 54 54" fill="none" xmlns="http://www.w3.org/2000/svg">
<g clip-path="url(#clip0_127_15937)">
<path d="M11.2559 15.8483V39.0574L24.1483 38.4964L27.1042 9.5091L28.1607 5.49102L27.1042 0C18.3654 0 11.2559 7.10956 11.2559 15.8483V15.8483Z" fill="#DC8758"/>
<path d="M42.9518 15.8483C42.9518 7.10956 35.8423 0 27.1035 0V9.5091L30.8353 39.0586L42.9518 39.0574V15.8483Z" fill="#BC6337"/>
<path d="M24.7894 30.5529L22.2451 31.668V38.1517H21.0879L26.9996 42.8973V32.9408L24.7894 30.5529Z" fill="#FFCCCC"/>
<path d="M31.6694 38.1517V31.713H28.9527L26.998 32.9407V42.8973L27.0492 42.9382L33.3374 38.1517H31.6694Z" fill="#FFB3B3"/>
<path d="M39.6786 38.1905L38.0938 46.0758L39.6786 50.8303L42.8482 52.4152L47.6027 50.8303V46.8862C47.6027 42.3353 44.1227 38.5995 39.6786 38.1905Z" fill="#2E2E4D"/>
<path d="M47.6027 50.8304H39.6786L38.0938 52.4153L39.6786 54.0001H47.6027V50.8304Z" fill="#FFB3B3"/>
<path d="M14.3206 38.1905C9.87667 38.5995 6.39648 42.3353 6.39648 46.8862V50.8303L11.151 52.4152L14.3206 50.8303L15.9055 46.0758L14.3206 38.1905Z" fill="#3D4566"/>
<path d="M6.39648 50.8304V54.0001H14.3206L15.5093 52.8115L14.3206 50.8304H6.39648Z" fill="#FFCCCC"/>
<path d="M26.999 42.8874L22.2445 38.1517C14.5295 38.1517 14.9021 38.1371 14.3203 38.1905V54.0001H26.999L28.0555 50.4431L26.999 42.8874Z" fill="#4D5E80"/>
<path d="M31.6694 38.1515L27.0491 42.9381L26.998 42.8872V53.9998H39.6767C39.6767 52.0127 39.6767 40.1844 39.6767 38.1903C39.1056 38.1378 39.4924 38.1515 31.6694 38.1515V38.1515Z" fill="#3D4566"/>
<path d="M23.8337 13.6588C22.1104 14.4794 19.8209 13.6426 19.752 13.617L17.5968 12.7776C17.5972 14.3871 17.5879 23.5092 17.617 23.9346C17.9419 28.9919 22.1346 32.8253 27.1058 32.8253L28.1623 21.1673L27.1058 9.50928C27.1057 9.50917 24.6566 13.2668 23.8337 13.6588V13.6588Z" fill="#FFE0E0"/>
<path d="M27.1033 27.4704H23.9336V24.3008H27.1033L28.1598 25.8856L27.1033 27.4704Z" fill="#FFCCCC"/>
<path d="M35.071 13.5113C31.7639 13.4211 28.0949 10.6884 28.0598 10.662L27.1035 9.50916V32.8252C31.9234 32.8252 35.8657 29.2326 36.5163 24.6695C36.6434 23.7816 36.6083 16.293 36.6125 13.5533L35.071 13.5113Z" fill="#FFCCCC"/>
<path d="M27.1035 24.3008H30.2732V27.4704H27.1035V24.3008Z" fill="#FFB3B3"/>
</g>
<defs>
<clipPath id="clip0_127_15937">
<rect width="54" height="54" fill="white"/>
</clipPath>
</defs>
</svg>
